<svg xmlns="http://www.w3.org/2000/svg" width="860" height="8" viewBox="0 0 860 8">
    <path fill="#F88908" fill-rule="evenodd" d="M845.69 0h-17.524l-4.619 8h17.525l4.619-8zM860 7.215V8h-.453l.453-.785zM809.69 0h-17.524l-4.619 8h17.525l4.619-8zm-36 0h-17.524l-4.619 8h17.525l4.619-8zm-36 0h-17.524l-4.619 8h17.525l4.619-8zm-36 0h-17.524l-4.619 8h17.525l4.619-8zm-36 0h-17.524l-4.619 8h17.525l4.619-8zm-36 0h-17.524l-4.619 8h17.525l4.619-8zm-36 0h-17.524l-4.619 8h17.525l4.619-8zm-36 0h-17.524l-4.619 8h17.525l4.619-8zm-36 0h-17.524l-4.619 8h17.525l4.619-8zm-36 0h-17.524l-4.619 8h17.525l4.619-8zm-36 0h-17.524l-4.619 8h17.525l4.619-8zm-36 0h-17.524l-4.619 8h17.525l4.619-8zm-36 0h-17.524l-4.619 8h17.525l4.619-8zm-36 0h-17.524l-4.619 8h17.525l4.619-8zm-36 0h-17.524l-4.619 8h17.525l4.619-8zm-36 0h-17.524l-4.619 8h17.525l4.619-8zm-36 0h-17.524l-4.619 8h17.525l4.619-8zm-36 0h-17.524l-4.619 8h17.525l4.619-8zm-36 0h-17.524l-4.619 8h17.525l4.619-8zm-36 0h-17.524l-4.619 8h17.525l4.619-8zm-36 0H72.167l-4.619 8h17.525l4.619-8zm-36 0H36.167l-4.619 8h17.525l4.619-8zm-36 0H-1v8h14.072l4.619-8z"/>
</svg>
