<?xml version="1.0" encoding="UTF-8"?>
<svg width="662px" height="116px" viewBox="0 0 662 116" version="1.1" xmlns="http://www.w3.org/2000/svg" xmlns:xlink="http://www.w3.org/1999/xlink">
    <!-- Generator: Sketch 44.1 (41455) - http://www.bohemiancoding.com/sketch -->
    <title>Icons</title>
    <desc>Created with Sketch.</desc>
    <defs></defs>
    <g id="Page-1" stroke="none" stroke-width="1" fill="none" fill-rule="evenodd">
        <g id="Icons">
            <g id="cbs-overview-inducts" fill-rule="nonzero" fill="#CCCBCB">
                <path d="M48.774,45.545 L37.816,45.545 C28.8866667,45.545 19.9583333,45.5426667 11.031,45.538 C5.899,45.532 2.451,42.874 2.451,38.926 C2.451,34.978 5.899,32.319 11.031,32.313 L48.774,32.313 C49.450825,32.313 49.9995,31.764325 49.9995,31.0875 C49.9995,30.410675 49.450825,29.862 48.774,29.862 L37.816,29.862 C28.8826667,29.862 19.953,29.8643333 11.027,29.869 C4.535,29.872 0,33.6 0,38.928 C0,44.256 4.535,47.983 11.028,47.991 C16.3053333,47.997 21.5826667,48 26.86,48 L37.817,48 L48.775,48 C49.2211762,48.0127466 49.6390249,47.7819955 49.8658739,47.3975802 C50.092723,47.0131648 50.092723,46.5358352 49.8658739,46.1514198 C49.6390249,45.7670045 49.2211762,45.5362534 48.775,45.549 L48.774,45.545 Z" id="Shape"></path>
                <path d="M11.225,28.143 L42.775,28.143 C43.4513203,28.1424486 43.9994486,27.5943203 44,26.918 L44,0.994 C44,0.730374809 43.8952753,0.47754702 43.7088641,0.29113586 C43.522453,0.104724699 43.2696252,-1.88737914e-15 43.006,-1.11022302e-16 L10.994,-1.11022302e-16 C10.445029,-1.11022302e-16 10,0.445028959 10,0.994 L10,26.918 C10.0005514,27.5943203 10.5486797,28.1424486 11.225,28.143 Z M12.451,2.451 L41.551,2.451 L41.551,25.692 L12.451,25.692 L12.451,2.451 Z" id="Shape"></path>
                <path d="M31.1,8.318 C31.776825,8.318 32.3255,7.76932496 32.3255,7.0925 C32.3255,6.41567504 31.776825,5.867 31.1,5.867 L23.63,5.867 C22.953175,5.867 22.4045,6.41567504 22.4045,7.0925 C22.4045,7.76932496 22.953175,8.318 23.63,8.318 L31.1,8.318 Z" id="Shape"></path>
                <path d="M5.112,39.024 C5.112,41.7688552 7.33714479,43.994 10.082,43.994 C12.8268552,43.994 15.052,41.7688552 15.052,39.024 C15.052,36.2791448 12.8268552,34.054 10.082,34.054 C7.33714479,34.054 5.112,36.2791448 5.112,39.024 Z M12.766,39.024 C12.766,40.1095767 12.1120644,41.0882605 11.1091223,41.5036927 C10.1061803,41.9191249 8.95174402,41.6894932 8.1841254,40.9218746 C7.41650678,40.154256 7.18687513,38.9998197 7.60230733,37.9968777 C8.01773954,36.9939356 8.99642333,36.34 10.082,36.34 C11.5636469,36.3416533 12.7643467,37.5423531 12.766,39.024 L12.766,39.024 Z" id="Shape"></path>
                <path d="M22.269,39.024 C22.269,41.7688552 24.4941448,43.994 27.239,43.994 C29.9838552,43.994 32.209,41.7688552 32.209,39.024 C32.209,36.2791448 29.9838552,34.054 27.239,34.054 C24.4941448,34.054 22.269,36.2791448 22.269,39.024 L22.269,39.024 Z M29.923,39.024 C29.923,40.1095767 29.2690644,41.0882605 28.2661223,41.5036927 C27.2631803,41.9191249 26.108744,41.6894932 25.3411254,40.9218746 C24.5735068,40.154256 24.3438751,38.9998197 24.7593073,37.9968777 C25.1747395,36.9939356 26.1534233,36.34 27.239,36.34 C28.7206469,36.3416533 29.9213467,37.5423531 29.923,39.024 L29.923,39.024 Z" id="Shape"></path>
                <path d="M44.4,34.054 C41.6551448,34.054 39.43,36.2791448 39.43,39.024 C39.43,41.7688552 41.6551448,43.994 44.4,43.994 C47.1448552,43.994 49.37,41.7688552 49.37,39.024 C49.37,36.2791448 47.1448552,34.054 44.4,34.054 Z M44.4,41.708 C42.9176677,41.708 41.716,40.5063323 41.716,39.024 C41.716,37.5416677 42.9176677,36.34 44.4,36.34 C45.8823323,36.34 47.084,37.5416677 47.084,39.024 C47.0823467,40.5056469 45.8816469,41.7063467 44.4,41.708 Z" id="Shape"></path>
            </g>
            <g id="cbs-overview-casket" transform="translate(51.000000, 6.000000)" fill-rule="nonzero" fill="#CCCBCB">
                <path d="M39.744,38 C45.783,37.992 50,34.526 50,29.571 C50.0023262,28.2937183 49.6886786,27.0356928 49.087,25.909 C46.577,20.754 44.187,15.361 41.923,10.456 C39.537,5.3 38.522,0.616 34.282,0.1 L34.282,0 L33.493,0 L16.8,0 C16.7011632,0.00619117371 16.6036152,0.0257007905 16.51,0.058 L16.51,0 C11.554,0 10.61,4.976 8.08,10.457 C5.8,15.393 3.387,20.812 0.859,26 C0.801,26.114 0.744,26.229 0.692,26.347 C0.576,26.584 0.463,26.828 0.346,27.064 L0.446,27.064 C0.162317683,27.8699387 0.0116822441,28.716672 0,29.571 C0,34.526 4.217,37.992 10.256,38 L39.744,38 Z M10.256,21.142 C8.36906276,21.1221993 6.50166202,21.5254075 4.791,22.322 C6.617,18.175 8.397,14.022 10.358,10.46 C12.658,6.278 12.835,2.279 16.508,2.279 L16.508,2.224 C16.6016152,2.25629921 16.6991632,2.27580883 16.798,2.282 L33.498,2.282 C37.165,2.282 37.343,6.282 39.643,10.462 C41.603,14.024 43.378,18.174 45.202,22.321 C43.4934968,21.526738 41.6290007,21.1245918 39.745,21.144 L10.256,21.142 Z M39.742,23.421 C44.515,23.427 47.721,25.898 47.721,29.571 C47.721,33.244 44.514,35.715 39.742,35.72 L10.259,35.72 C5.486,35.714 2.28,33.242 2.28,29.571 C2.28,25.9 5.487,23.427 10.259,23.421 L39.742,23.421 Z" id="Shape"></path>
                <path d="M9.375,24.69 C6.63014479,24.69 4.405,26.9151448 4.405,29.66 C4.405,32.4048552 6.63014479,34.63 9.375,34.63 C12.1198552,34.63 14.345,32.4048552 14.345,29.66 C14.345,26.9151448 12.1198552,24.69 9.375,24.69 L9.375,24.69 Z M9.375,32.344 C7.89266773,32.344 6.691,31.1423323 6.691,29.66 C6.691,28.1776677 7.89266773,26.976 9.375,26.976 C10.8573323,26.976 12.059,28.1776677 12.059,29.66 C12.0573467,31.1416469 10.8566469,32.3423467 9.375,32.344 Z" id="Shape"></path>
                <path d="M40.625,24.69 C37.8801448,24.69 35.655,26.9151448 35.655,29.66 C35.655,32.4048552 37.8801448,34.63 40.625,34.63 C43.3698552,34.63 45.595,32.4048552 45.595,29.66 C45.595,26.9151448 43.3698552,24.69 40.625,24.69 L40.625,24.69 Z M40.625,32.344 C39.1426677,32.344 37.941,31.1423323 37.941,29.66 C37.941,28.1776677 39.1426677,26.976 40.625,26.976 C42.1073323,26.976 43.309,28.1776677 43.309,29.66 C43.3073467,31.1416469 42.1066469,32.3423467 40.625,32.344 Z" id="Shape"></path>
            </g>
            <path d="M151.93,26.288 L145.168,6.847 C144.991757,6.33993906 144.513817,6.00004361 143.977,6 L109.883,6 C109.342982,5.99993705 108.862868,6.34373782 108.689,6.855 L102.067,26.3 C102.023282,26.4288578 102.000657,26.5639295 102,26.7 L102,43.739 C102,44.0736113 102.132992,44.3945033 102.369692,44.6310154 C102.606392,44.8675275 102.927389,45.0002654 103.262,45 L150.739,45 C151.435431,45 152,44.4354311 152,43.739 L152,26.7 C151.999744,26.5597292 151.976086,26.4204841 151.93,26.288 Z M110.786,8.522 L143.08,8.522 L148.965,25.442 L134.565,25.442 C133.912879,25.4433756 133.368845,25.9406296 133.309,26.59 C133.282,26.879 132.59,33.674 127,33.674 C121.41,33.674 120.717,26.88 120.691,26.593 C120.633974,25.9417685 120.088723,25.4421001 119.435,25.442 L105.022,25.442 L110.786,8.522 Z M104.523,42.478 L104.523,27.964 L118.344,27.964 C118.995,31.322 121.364,36.195 127.001,36.195 C132.638,36.195 135.007,31.321 135.658,27.964 L149.479,27.964 L149.479,42.478 L104.523,42.478 Z" id="cbs-overview-chutes" fill="#CCCBCB" fill-rule="nonzero"></path>
            <g id="cbs-overview-rejection" transform="translate(153.000000, 0.000000)" fill-rule="nonzero" fill="#CCCBCB">
                <path d="M43.63,11.245 L41.84,13.035 L43.329,15.09 L39.785,15.09 L37.459,17.59 L44.529,17.59 L44.529,41.259 L14.107,41.259 L11.607,43.759 L45.778,43.759 C46.4683559,43.759 47.028,43.1993559 47.028,42.509 L47.028,16.34 C47.0281895,16.0766442 46.9448626,15.8200115 46.79,15.607 L43.63,11.245 Z" id="Shape"></path>
                <path d="M32.6,24 C32.5986049,23.5650297 32.49589,23.1363661 32.3,22.748 L28.2,26.848 L29.753,26.848 C31.324375,26.8446977 32.5972496,25.5713761 32.6,24 L32.6,24 Z" id="Shape"></path>
                <path d="M49.477,0.349 C49.2538282,0.125805446 48.9511287,0.000414137034 48.6355,0.000414137034 C48.3198713,0.000414137034 48.0171718,0.125805446 47.794,0.349 L40.8,7.342 L40.668,7.16 C40.4332492,6.83516858 40.0567785,6.64284116 39.656,6.643 L12.878,6.643 C12.5005642,6.64298757 12.1433316,6.81351834 11.906,7.107 L5.173,15.432 C4.99325916,15.6545464 4.89514999,15.9319342 4.895,16.218 L4.895,42.509 C4.89532427,42.8353749 5.02389836,43.1485498 5.253,43.381 L0.353,47.968 C0.0520037405,48.2682817 -0.065929878,48.7063331 0.0436235973,49.1171444 C0.153177073,49.5279556 0.473573863,49.8491148 0.884123597,49.9596444 C1.29467333,50.0701739 1.73300374,49.9532817 2.034,49.653 C2.034,49.653 2.885,48.821 3.861,47.919 L48.629,2.944 L49.478,2.031 C49.9418387,1.56610497 49.9413912,0.813343174 49.477,0.349 Z M13.477,9.143 L24.626,9.143 L24.626,15.09 L8.665,15.09 L13.477,9.143 Z M23.967,24.35 L21.952,24.35 C21.7587003,24.35 21.602,24.1932997 21.602,24 C21.602,23.8067003 21.7587003,23.65 21.952,23.65 L24.667,23.65 L23.967,24.35 Z M27.167,21.15 L21.952,21.15 C20.463566,21.1452346 19.2232268,22.2889339 19.1075034,23.77287 C18.99178,25.2568062 20.0398217,26.5789627 21.511,26.805 L7.4,41.239 L7.4,17.59 L30.731,17.59 L27.167,21.15 Z M33.227,15.09 L27.127,15.09 L27.127,9.143 L39,9.143 L33.227,15.09 Z" id="Shape"></path>
            </g>
            <g id="butler-overview-put" transform="translate(209.000000, 0.000000)" fill-rule="nonzero" fill="#CCCBCB">
                <path d="M21.165,23.756 C21.153,23.743 21.137,23.739 21.125,23.727 C21.113,23.715 21.108,23.698 21.096,23.687 C21.0485701,23.6529109 20.9983986,23.622808 20.946,23.597 C20.8854812,23.551503 20.8204779,23.5122999 20.752,23.48 C20.6848101,23.4565735 20.615475,23.4398259 20.545,23.43 C20.4058662,23.3873197 20.2571338,23.3873197 20.118,23.43 C20.0471961,23.4398125 19.977528,23.4565597 19.91,23.48 C19.8419332,23.5120849 19.7772731,23.5509479 19.717,23.596 C19.6642687,23.6221636 19.6137668,23.6525985 19.566,23.687 C19.553,23.699 19.549,23.715 19.537,23.727 C19.525,23.739 19.508,23.743 19.497,23.756 L11.579,32.4 C11.3058705,32.6979595 11.2124479,33.1189983 11.3339236,33.5045152 C11.4553993,33.8900321 11.7733183,34.1814578 12.1679236,34.2690152 C12.5625288,34.3565726 12.9738705,34.2269595 13.247,33.929 L19.2,27.429 L19.2,48.869 C19.2,49.4936341 19.7063659,50 20.331,50 C20.9556341,50 21.462,49.4936341 21.462,48.869 L21.462,27.43 L27.415,33.93 C27.6881295,34.2279596 28.0994712,34.3575727 28.4940765,34.2700153 C28.8886818,34.1824579 29.2066008,33.8910322 29.3280765,33.5055153 C29.4495523,33.1199983 29.3561296,32.6989595 29.083,32.401 L21.165,23.756 Z" id="Shape"></path>
                <path d="M38.179,0 C38.124,0 38.079,0.027 38.023,0.031 C37.967,0.035 37.923,-1.11022302e-16 37.867,-1.11022302e-16 L3.812,-1.11022302e-16 C3.48826282,0.135446469 3.12373718,0.135446469 2.8,6.43929354e-15 C1.80588745,6.43929354e-15 1,0.80588745 1,1.8 L1,44.358 C0.949712346,45.0312733 1.28041587,45.6760729 1.85654308,46.0280717 C2.43267028,46.3800706 3.15732972,46.3800706 3.73345692,46.0280717 C4.30958413,45.6760729 4.64028765,45.0312733 4.59,44.358 L4.59,36.627 L9.207,36.627 C8.21359519,35.7022029 7.6694255,34.3924755 7.715,33.036 L4.59,33.036 L4.59,24.577 L10.975,24.577 L10.975,27.741 L12.305,26.289 L12.305,24.577 L13.873,24.577 L15.092,23.247 L12.305,23.247 L12.305,13.658 L19.821,13.658 L19.821,19.842 C20.2638912,19.7825223 20.7136861,19.7990937 21.151,19.891 L21.151,13.658 L28.668,13.658 L28.668,23.247 L25.568,23.247 L26.786,24.577 L28.666,24.577 L28.666,26.629 L30,28.081 L30,24.581 L36.385,24.581 L36.385,33.039 L32.949,33.039 C32.9931269,34.3954139 32.4487793,35.7046919 31.456,36.63 L36.385,36.63 L36.385,44.361 C36.3347123,45.0342733 36.6654159,45.6790729 37.2415431,46.0310717 C37.8176703,46.3830706 38.5423297,46.3830706 39.1184569,46.0310717 C39.6945841,45.6790729 40.0252877,45.0342733 39.975,44.361 L39.975,1.8 C39.9750025,0.807447455 39.1715501,0.00220567232 38.179,-1.11022302e-16 L38.179,0 Z M10.979,23.247 L4.59,23.247 L4.59,13.658 L10.975,13.658 L10.979,23.247 Z M10.979,12.328 L4.59,12.328 L4.59,3.591 L10.975,3.591 L10.979,12.328 Z M19.825,12.328 L12.309,12.328 L12.309,3.591 L19.825,3.591 L19.825,12.328 Z M28.672,12.328 L21.155,12.328 L21.155,3.591 L28.672,3.591 L28.672,12.328 Z M36.388,23.247 L30,23.247 L30,13.658 L36.385,13.658 L36.388,23.247 Z M36.388,12.328 L30,12.328 L30,3.591 L36.385,3.591 L36.388,12.328 Z" id="Shape"></path>
            </g>
            <g id="butler-overview-aduit" transform="translate(255.000000, 4.000000)" fill-rule="nonzero" fill="#CCCBCB">
                <path d="M27.783,8.034 C27.7832653,7.62221077 27.6198687,7.22719655 27.3287834,6.93592377 C27.0376982,6.64465099 26.6427893,6.48099991 26.231,6.481 L16.768,6.481 C16.1954513,6.45190512 15.6534931,6.74080538 15.3584882,7.23236481 C15.0634833,7.72392424 15.0634833,8.33807576 15.3584882,8.82963519 C15.6534931,9.32119462 16.1954513,9.61009488 16.768,9.581 L26.231,9.581 C27.0861971,9.58100444 27.7802449,8.88919266 27.783,8.034 L27.783,8.034 Z" id="Shape"></path>
                <path d="M21.5,35.4 L3.105,35.4 L3.105,3.1 L39.892,3.1 L39.892,17.011 C40.9461259,17.1012437 41.9872746,17.3061204 42.997,17.622 L42.997,1.259 C42.997,0.5636735 42.4333265,0 41.738,0 L1.259,0 C0.5636735,0 0,0.5636735 0,1.259 L0,36.951 C0,37.8086982 0.695301784,38.504 1.553,38.504 L25.682,38.504 C25.15837,37.5190878 24.7496877,36.47725 24.464,35.399 L21.5,35.4 Z" id="Shape"></path>
                <path d="M38.6,20.2 C32.3039539,20.2 27.2,25.3039539 27.2,31.6 C27.2,37.8960461 32.3039539,43 38.6,43 C44.8960461,43 50,37.8960461 50,31.6 C49.9917365,25.3073799 44.8926201,20.2082635 38.6,20.2 Z M43.9,29.047 L37.983,36.038 C37.7252985,36.3423427 37.3541133,36.5277546 36.956,36.551 L36.956,36.551 C36.5611873,36.5680592 36.1755925,36.428627 35.883,36.163 L33.416,33.863 C32.9857854,33.4607201 32.839868,32.8391008 33.04615,32.2874112 C33.2524321,31.7357215 33.7703926,31.3623326 34.359,31.341 C34.7440501,31.3328188 35.1176204,31.4723709 35.403,31.731 L36.75,32.989 L41.678,27.168 C42.1971477,26.5538594 43.1158594,26.4768523 43.73,26.996 C44.3441406,27.5151477 44.4211477,28.4338594 43.902,29.048 L43.9,29.047 Z" id="Shape"></path>
            </g>
            <g id="butler-overview-pick" transform="translate(311.000000, 0.000000)" fill-rule="nonzero" fill="#CCCBCB">
                <path d="M38.179,1.11022302e-16 C38.124,1.11022302e-16 38.079,0.027 38.023,0.031 C37.967,0.035 37.923,0 37.867,0 L3.812,0 C3.48828533,0.135558559 3.12371467,0.135558559 2.8,1.11022302e-16 C1.80588745,1.11022302e-16 1,0.80588745 1,1.8 L1,44.358 C0.949712346,45.0312733 1.28041587,45.6760729 1.85654308,46.0280717 C2.43267028,46.3800706 3.15732972,46.3800706 3.73345692,46.0280717 C4.30958413,45.6760729 4.64028765,45.0312733 4.59,44.358 L4.59,36.627 L9.39,36.627 C11.1318741,35.1412348 13.6951259,35.1412348 15.437,36.627 L15.61,36.627 L15.61,33.036 L12.31,33.036 L12.31,24.577 L15.61,24.577 L15.61,24.529 C15.616544,24.0944299 15.6838634,23.6629129 15.81,23.247 L12.31,23.247 L12.31,13.658 L19.825,13.658 L19.825,19.858 C19.9939095,19.8312634 20.1641703,19.8139035 20.335,19.806 C20.6105708,19.8095427 20.885296,19.8373164 21.156,19.889 L21.156,13.658 L28.673,13.658 L28.673,23.247 L24.859,23.247 C24.9851366,23.6629129 25.052456,24.0944299 25.059,24.529 L25.059,24.577 L28.674,24.577 L28.674,33.036 L25.059,33.036 L25.059,36.627 L25.232,36.627 C26.9738741,35.1412348 29.5371259,35.1412348 31.279,36.627 L36.39,36.627 L36.39,44.358 C36.3397123,45.0312733 36.6704159,45.6760729 37.2465431,46.0280717 C37.8226703,46.3800706 38.5473297,46.3800706 39.1234569,46.0280717 C39.6995841,45.6760729 40.0302877,45.0312733 39.98,44.358 L39.98,1.8 C39.9800001,1.32243701 39.7902205,0.864448352 39.4524387,0.52685411 C39.1146569,0.189259868 38.6565629,-0.000265312774 38.179,1.11022302e-16 L38.179,1.11022302e-16 Z M10.979,33.036 L4.59,33.036 L4.59,24.577 L10.975,24.577 L10.979,33.036 Z M10.979,23.247 L4.59,23.247 L4.59,13.658 L10.975,13.658 L10.979,23.247 Z M10.979,12.328 L4.59,12.328 L4.59,3.591 L10.975,3.591 L10.979,12.328 Z M19.825,12.328 L12.31,12.328 L12.31,3.591 L19.825,3.591 L19.825,12.328 Z M28.672,12.328 L21.155,12.328 L21.155,3.591 L28.672,3.591 L28.672,12.328 Z M36.388,33.036 L30,33.036 L30,24.577 L36.385,24.577 L36.388,33.036 Z M36.388,23.247 L30,23.247 L30,13.658 L36.385,13.658 L36.388,23.247 Z M36.388,12.328 L30,12.328 L30,3.591 L36.385,3.591 L36.388,12.328 Z" id="Shape"></path>
                <path d="M28.249,39.1 C27.9317871,39.0997373 27.6290976,39.2329352 27.415,39.467 L21.462,45.967 L21.462,24.529 C21.462,23.9043659 20.9556341,23.398 20.331,23.398 C19.7063659,23.398 19.2,23.9043659 19.2,24.529 L19.2,45.969 L13.247,39.469 C12.824226,39.0083946 12.1081055,38.9777261 11.6475001,39.4005001 C11.1868946,39.823274 11.1562261,40.5393945 11.579,41 L19.497,49.643 C19.509,49.656 19.525,49.66 19.537,49.672 C19.549,49.684 19.554,49.701 19.566,49.712 C19.6134818,49.7460103 19.6636466,49.7761091 19.716,49.802 C19.7765498,49.8474512 19.8415483,49.8866513 19.91,49.919 C19.9772026,49.9423831 20.0465334,49.9591297 20.117,49.969 C20.256143,50.0116191 20.404857,50.0116191 20.544,49.969 C20.6147932,49.9591308 20.6844558,49.942385 20.752,49.919 C20.8200636,49.8869091 20.8847231,49.8480464 20.945,49.803 C20.9977228,49.7768207 21.0482234,49.7463866 21.096,49.712 C21.109,49.7 21.113,49.684 21.125,49.671 C21.137,49.658 21.153,49.655 21.165,49.642 L29.083,41 C29.38934,40.6696317 29.4703811,40.1889536 29.2892946,39.7764065 C29.1082081,39.3638593 28.6995374,39.0981389 28.249,39.1 L28.249,39.1 Z" id="Shape"></path>
            </g>
            <g id="user-icon" transform="translate(368.000000, 10.000000)" fill-rule="nonzero">
                <rect id="Rectangle-path" fill="#4D5055" x="0" y="0" width="30" height="30" rx="15"></rect>
                <path d="M4.732,25.951 C10.4299154,31.3388045 19.3238708,31.4038674 25.1,26.1 C23.7552094,21.8868797 19.9611642,18.9320282 15.547,18.66 C18.3346634,18.3952728 20.4271572,15.9944599 20.3086316,13.1967646 C20.190106,10.3990692 17.9020515,8.18384021 15.1019866,8.15583956 C12.3019217,8.12783891 9.97002463,10.2968684 9.79557442,13.091634 C9.62112421,15.8863996 11.6651881,18.328578 14.447,18.649 C10.0073931,18.8318243 6.14186691,21.7372358 4.732,25.951 L4.732,25.951 Z" id="Shape" fill="#FFFFFF"></path>
            </g>
            <g id="header-event" transform="translate(50.000000, 51.000000)" fill-rule="nonzero">
                <path d="M12,0 C5.372583,0 0,5.372583 0,12 C0,18.627417 5.372583,24 12,24 C18.627417,24 24,18.627417 24,12 C24,5.372583 18.627417,0 12,0 Z" id="Shape" fill="#27A8E0"></path>
                <rect id="Rectangle-path" fill="#FFFFFF" x="10.954" y="10.64" width="2.091" height="6.814"></rect>
                <rect id="Rectangle-path" fill="#FFFFFF" x="10.954" y="6.545" width="2.091" height="1.935"></rect>
            </g>
            <g id="header-yellow-alert" transform="translate(74.000000, 52.000000)" fill-rule="nonzero">
                <path d="M24.854,20.338 L13.943,0.557 C13.7535079,0.21354118 13.3922642,0.000269161108 13,0.000269161108 C12.6077358,0.000269161108 12.2464921,0.21354118 12.057,0.557 L1.146,20.338 C0.950138354,20.6783463 0.948862266,21.0968931 1.14264496,21.4384274 C1.33642765,21.7799617 1.69637312,21.9935554 2.089,22 L23.911,22 C24.3036269,21.9935554 24.6635723,21.7799617 24.857355,21.4384274 C25.0511377,21.0968931 25.0498616,20.6783463 24.854,20.338 Z" id="Shape" fill="#F7941D"></path>
                <rect id="Rectangle-path" fill="#FFFFFF" x="11.965" y="7.728" width="2.07" height="6.746"></rect>
                <rect id="Rectangle-path" fill="#FFFFFF" x="11.965" y="16.613" width="2.07" height="1.916"></rect>
            </g>
            <g id="header-red-alert" transform="translate(99.000000, 52.000000)" fill-rule="nonzero">
                <path d="M24.854,20.338 L13.943,0.557 C13.7535079,0.21354118 13.3922642,0.000269161108 13,0.000269161108 C12.6077358,0.000269161108 12.2464921,0.21354118 12.057,0.557 L1.146,20.338 C0.950138354,20.6783463 0.948862266,21.0968931 1.14264496,21.4384274 C1.33642765,21.7799617 1.69637312,21.9935554 2.089,22 L23.911,22 C24.3036269,21.9935554 24.6635723,21.7799617 24.857355,21.4384274 C25.0511377,21.0968931 25.0498616,20.6783463 24.854,20.338 Z" id="Shape" fill="#EE3E3D"></path>
                <rect id="Rectangle-path" fill="#FFFFFF" x="11.965" y="7.729" width="2.07" height="6.746"></rect>
                <rect id="Rectangle-path" fill="#FFFFFF" x="11.965" y="16.613" width="2.07" height="1.916"></rect>
            </g>
            <g id="header-emergency" transform="translate(124.000000, 52.000000)" fill-rule="nonzero">
                <path d="M24.854,20.338 L13.943,0.557 C13.7535079,0.21354118 13.3922642,0.000269161108 13,0.000269161108 C12.6077358,0.000269161108 12.2464921,0.21354118 12.057,0.557 L1.146,20.338 C0.950138354,20.6783463 0.948862266,21.0968931 1.14264496,21.4384274 C1.33642765,21.7799617 1.69637312,21.9935554 2.089,22 L23.911,22 C24.3036269,21.9935554 24.6635723,21.7799617 24.857355,21.4384274 C25.0511377,21.0968931 25.0498616,20.6783463 24.854,20.338 Z" id="Shape" fill="#FFFFFF"></path>
                <rect id="Rectangle-path" fill="#EE3E3D" x="11.965" y="7.729" width="2.07" height="6.746"></rect>
                <rect id="Rectangle-path" fill="#EE3E3D" x="11.965" y="16.613" width="2.07" height="1.916"></rect>
            </g>
            <g id="overview-tile-ontime" transform="translate(0.000000, 76.000000)" fill-rule="nonzero" fill="#00A44D">
                <path d="M8,0 C3.581722,0 4.4408921e-16,3.581722 0,8 C-5.55111512e-16,12.418278 3.581722,16 8,16 C12.418278,16 16,12.418278 16,8 C15.9950401,3.58377808 12.4162219,0.00495988455 8,0 Z M8,14.5 C4.41014913,14.5 1.5,11.5898509 1.5,8 C1.5,4.41014913 4.41014913,1.5 8,1.5 C11.5898509,1.5 14.5,4.41014913 14.5,8 C14.496142,11.5882516 11.5882516,14.496142 8,14.5 Z" id="Shape"></path>
                <path d="M8.893,3.434 C8.7484246,3.28752182 8.550806,3.20566156 8.345,3.207 C8.13985512,3.20991909 7.94367267,3.29154244 7.797,3.435 C7.65148583,3.5804711 7.57042959,3.77824834 7.572,3.984 L7.6,8.306 L4.916,8.288 C4.71058786,8.27837343 4.50968455,8.35025297 4.357,8.488 C4.12672933,8.70002494 4.04638989,9.02963769 4.15327325,9.32384018 C4.26015662,9.61804266 4.53333274,9.81922369 4.846,9.834 L8.346,9.888 C8.55629669,9.89458585 8.76072226,9.81806099 8.915,9.675 L8.915,9.675 C9.06858148,9.52810385 9.15500519,9.32451997 9.154,9.112 L9.123,3.977 C9.1217571,3.77258218 9.0389638,3.57711799 8.893,3.434 Z" id="Shape"></path>
            </g>
            <g id="overview-tile-red-alert" transform="translate(17.000000, 77.000000)" fill-rule="nonzero">
                <path d="M0.726,14 L15.274,14 C15.5356371,13.9954226 15.7754032,13.8530057 15.9045894,13.6254407 C16.0337757,13.3978757 16.0331714,13.1190029 15.903,12.892 L8.629,0.371 C8.50262171,0.142196287 8.26188594,0.000148023183 8.0005,0.000148023183 C7.73911406,0.000148023183 7.49837829,0.142196287 7.372,0.371 L0.1,12.892 C-0.0299344015,13.1185424 -0.0308351791,13.3967996 0.0976297831,13.6241785 C0.226094745,13.8515574 0.464900654,13.9943846 0.726,14 L0.726,14 Z" id="Shape" fill="#EA2127"></path>
                <path d="M8.69,4.486 L8.69,8.986 L7.31,8.986 L7.31,4.486 L8.69,4.486 Z M8.69,10.409 L8.69,11.686 L7.31,11.686 L7.31,10.409 L8.69,10.409 Z" id="Shape" fill="#FFFFFF"></path>
            </g>
            <g id="overview-tile-yellow-alert" transform="translate(34.000000, 77.000000)" fill-rule="nonzero">
                <path d="M0.726,14 L15.274,14 C15.5356371,13.9954226 15.7754032,13.8530057 15.9045894,13.6254407 C16.0337757,13.3978757 16.0331714,13.1190029 15.903,12.892 L8.629,0.371 C8.50262171,0.142196287 8.26188594,0.000148023183 8.0005,0.000148023183 C7.73911406,0.000148023183 7.49837829,0.142196287 7.372,0.371 L0.1,12.892 C-0.0299344015,13.1185424 -0.0308351791,13.3967996 0.0976297831,13.6241785 C0.226094745,13.8515574 0.464900654,13.9943846 0.726,14 Z" id="Shape" fill="#DB8027"></path>
                <path d="M8.69,4.486 L8.69,8.986 L7.31,8.986 L7.31,4.486 L8.69,4.486 Z M8.69,10.409 L8.69,11.686 L7.31,11.686 L7.31,10.409 L8.69,10.409 Z" id="Shape" fill="#FFFFFF"></path>
            </g>
            <g id="checkbox-disabled" transform="translate(51.000000, 76.000000)" fill-rule="nonzero">
                <rect id="Rectangle-path" fill="#FFFFFF" x="1" y="1" width="14" height="14" rx="1.5"></rect>
                <path d="M13.5,16 L2.5,16 C1.11928813,16 0,14.8807119 0,13.5 L0,2.5 C0,1.11928813 1.11928813,0 2.5,0 L13.5,0 C14.8807119,0 16,1.11928813 16,2.5 L16,13.5 C16,14.8807119 14.8807119,16 13.5,16 Z M2.5,1 C1.67157288,1 1,1.67157288 1,2.5 L1,13.5 C1,14.3284271 1.67157288,15 2.5,15 L13.5,15 C14.3284271,15 15,14.3284271 15,13.5 L15,2.5 C15,1.67157288 14.3284271,1 13.5,1 L2.5,1 Z" id="Shape" fill="#AAAAAA"></path>
            </g>
            <g id="checkbox-empty" transform="translate(68.000000, 76.000000)" fill-rule="nonzero" fill="#333333">
                <path d="M13.5,16 L2.5,16 C1.11928813,16 0,14.8807119 0,13.5 L0,2.5 C0,1.11928813 1.11928813,0 2.5,0 L13.5,0 C14.8807119,0 16,1.11928813 16,2.5 L16,13.5 C16,14.8807119 14.8807119,16 13.5,16 Z M2.5,1 C1.67157288,1 1,1.67157288 1,2.5 L1,13.5 C1,14.3284271 1.67157288,15 2.5,15 L13.5,15 C14.3284271,15 15,14.3284271 15,13.5 L15,2.5 C15,1.67157288 14.3284271,1 13.5,1 L2.5,1 Z" id="Shape"></path>
            </g>
            <g id="checkbox-half-selected" transform="translate(85.000000, 76.000000)" fill-rule="nonzero" fill="#333333">
                <path d="M13.5,0 L2.5,0 C1.11928813,0 0,1.11928813 0,2.5 L0,13.5 C0,14.8807119 1.11928813,16 2.5,16 L13.5,16 C14.8807119,16 16,14.8807119 16,13.5 L16,2.5 C16,1.83695878 15.7366079,1.20107399 15.267767,0.732233047 C14.798926,0.263392101 14.1630412,0 13.5,0 L13.5,0 Z M15,13.5 C15,14.3284271 14.3284271,15 13.5,15 L2.5,15 C1.67157288,15 1,14.3284271 1,13.5 L1,2.5 C1,1.67157288 1.67157288,1 2.5,1 L13.5,1 C14.3284271,1 15,1.67157288 15,2.5 L15,13.5 Z" id="Shape"></path>
                <rect id="Rectangle-path" x="4" y="4" width="8" height="8" rx="1.25"></rect>
            </g>
            <g id="checkbox-selected" transform="translate(102.000000, 76.000000)" fill-rule="nonzero" fill="#333333">
                <path d="M13.5,16 L2.5,16 C1.11928813,16 0,14.8807119 0,13.5 L0,2.5 C0,1.11928813 1.11928813,0 2.5,0 L13.5,0 C14.8807119,0 16,1.11928813 16,2.5 L16,13.5 C16,14.8807119 14.8807119,16 13.5,16 Z M2.5,1 C1.67157288,1 1,1.67157288 1,2.5 L1,13.5 C1,14.3284271 1.67157288,15 2.5,15 L13.5,15 C14.3284271,15 15,14.3284271 15,13.5 L15,2.5 C15,1.67157288 14.3284271,1 13.5,1 L2.5,1 Z" id="Shape"></path>
                <path d="M11.4,4.683 L6.462,9.621 L4.592,7.752 C4.39177625,7.54125102 4.09298835,7.45569892 3.8115648,7.52853755 C3.53014125,7.60137618 3.31037618,7.82114125 3.23753755,8.1025648 C3.16469892,8.38398835 3.25025102,8.68277625 3.461,8.883 L5.721,11.143 C5.80057074,11.1753096 5.86369039,11.2384293 5.896,11.318 C6.04605461,11.4682216 6.2496726,11.5526293 6.462,11.5526293 C6.6743274,11.5526293 6.87794539,11.4682216 7.028,11.318 L12.528,5.818 C12.840317,5.50540683 12.8400932,4.99881703 12.5275,4.6865 C12.2149068,4.37418297 11.708317,4.37440683 11.396,4.687 L11.4,4.683 Z" id="Shape"></path>
            </g>
            <g id="searchbox-magnifying-glass" transform="translate(0.000000, 92.000000)" fill-rule="nonzero" fill="#AAAAAA">
                <path d="M3.409,11.4 C5.02875952,12.6493289 7.21473439,12.8780262 9.058,11.991 C9.16823195,11.9438692 9.28619689,11.9174287 9.406,11.913 C9.85133333,12.513 10.2953333,13.113 10.738,13.713 L11.465,14.705 C11.6105859,14.9192514 11.8615548,15.036893 12.1193646,15.0117332 C12.3771744,14.9865735 12.6006633,14.8226294 12.7020791,14.5842731 C12.8034949,14.3459167 12.7666456,14.0712041 12.606,13.868 L11.88,12.876 C11.434,12.2673333 10.986,11.6603333 10.536,11.055 C10.6163466,10.9503856 10.7067813,10.8539218 10.806,10.767 L10.891,10.687 C12.1799815,9.44865945 12.7565905,7.6432301 12.424,5.887 C12.1133638,3.96916401 10.882683,2.32526731 9.13,1.487 C7.44096716,0.746531113 5.50045807,0.853450305 3.903,1.775 C2.31746305,2.65266988 1.25311456,4.24174441 1.045,6.042 C0.740572599,8.13352289 1.65891637,10.2149467 3.409,11.4 L3.409,11.4 Z M2.451,6.206 C2.60939295,4.85519887 3.40955136,3.66371123 4.6,3.006 C5.47189431,2.50799143 6.48550526,2.31646509 7.479,2.462 C7.84769456,2.51836146 8.20699603,2.62467163 8.547,2.778 C9.87266985,3.42073397 10.7997661,4.67167896 11.029,6.127 C11.2786139,7.41955625 10.8593066,8.75080997 9.914,9.667 L9.838,9.74 C9.73267259,9.83452677 9.63252677,9.93467259 9.538,10.04 L8.822,10.576 C8.70106754,10.607372 8.58298538,10.6488513 8.469,10.7 L8.469,10.7 C7.08963478,11.3808248 5.44140033,11.205605 4.236,10.25 C2.91626039,9.35549213 2.22313098,7.78595205 2.451,6.208 L2.451,6.206 Z" id="Shape"></path>
            </g>
            <g id="searchbox-magnifying-glass-2" transform="translate(31.000000, 92.000000)" fill-rule="nonzero" fill="#666666">
                <path d="M2.539,11.4 C4.15875952,12.6493289 6.34473439,12.8780262 8.188,11.991 C8.29823195,11.9438692 8.41619689,11.9174287 8.536,11.913 C8.98133333,12.513 9.42533333,13.113 9.868,13.713 L10.595,14.705 C10.7405859,14.9192514 10.9915548,15.036893 11.2493646,15.0117332 C11.5071744,14.9865735 11.7306633,14.8226294 11.8320791,14.5842731 C11.9334949,14.3459167 11.8966456,14.0712041 11.736,13.868 L11.01,12.876 C10.564,12.2673333 10.116,11.6603333 9.666,11.055 C9.74634657,10.9503856 9.83678133,10.8539218 9.936,10.767 L10.021,10.687 C11.3099815,9.44865945 11.8865905,7.6432301 11.554,5.887 C11.2433638,3.96916401 10.012683,2.32526731 8.26,1.487 C6.57096716,0.746531113 4.63045807,0.853450305 3.033,1.775 C1.44746305,2.65266988 0.38311456,4.24174441 0.175,6.042 C-0.129427401,8.13352289 0.788916369,10.2149467 2.539,11.4 L2.539,11.4 Z M1.581,6.206 C1.73939295,4.85519887 2.53955136,3.66371123 3.73,3.006 C4.60189431,2.50799143 5.61550526,2.31646509 6.609,2.462 C6.97769456,2.51836146 7.33699603,2.62467163 7.677,2.778 C9.00266985,3.42073397 9.92976613,4.67167896 10.159,6.127 C10.4086139,7.41955625 9.98930662,8.75080997 9.044,9.667 L8.968,9.74 C8.86267259,9.83452677 8.76252677,9.93467259 8.668,10.04 L7.952,10.576 C7.83106754,10.607372 7.71298538,10.6488513 7.599,10.7 L7.599,10.7 C6.21963478,11.3808248 4.57140033,11.205605 3.366,10.25 C2.04626039,9.35549213 1.35313098,7.78595205 1.581,6.208 L1.581,6.206 Z" id="Shape"></path>
            </g>
            <path d="M23.213,100 L27.75,95.463 C28.0846845,95.1283154 28.0846845,94.5856846 27.75,94.251 C27.4153154,93.9163155 26.8726846,93.9163155 26.538,94.251 L22,98.788 L17.463,94.251 C17.1283154,93.9163155 16.5856846,93.9163155 16.251,94.251 C15.9163155,94.5856846 15.9163155,95.1283154 16.251,95.463 L20.789,100 L16.252,104.537 C16.035497,104.753503 15.950943,105.069063 16.0301886,105.364811 C16.1094341,105.66056 16.34044,105.891566 16.6361886,105.970811 C16.9319371,106.050057 17.2474971,105.965503 17.464,105.749 L22,101.212 L26.537,105.749 C26.8716846,106.083685 27.4143154,106.083685 27.749,105.749 C28.0836845,105.414315 28.0836845,104.871685 27.749,104.537 L23.213,100 Z" id="searchbox-cross" fill="#AAAAAA" fill-rule="nonzero"></path>
            <path d="M53.213,100 L57.75,95.463 C58.0846845,95.1283154 58.0846845,94.5856846 57.75,94.251 C57.4153154,93.9163155 56.8726846,93.9163155 56.538,94.251 L52,98.788 L47.463,94.251 C47.1283154,93.9163155 46.5856846,93.9163155 46.251,94.251 C45.9163155,94.5856846 45.9163155,95.1283154 46.251,95.463 L50.789,100 L46.252,104.537 C46.035497,104.753503 45.950943,105.069063 46.0301886,105.364811 C46.1094341,105.66056 46.34044,105.891566 46.6361886,105.970811 C46.9319371,106.050057 47.2474971,105.965503 47.464,105.749 L52,101.212 L56.537,105.749 C56.7535029,105.965503 57.0690629,106.050057 57.3648114,105.970811 C57.66056,105.891566 57.8915659,105.66056 57.9708114,105.364811 C58.050057,105.069063 57.965503,104.753503 57.749,104.537 L53.213,100 Z" id="searchbox-cross-2" fill="#666666" fill-rule="nonzero"></path>
            <path d="M68.212,100 L72.749,95.463 C73.0836845,95.1283154 73.0836845,94.5856846 72.749,94.251 C72.4143154,93.9163155 71.8716846,93.9163155 71.537,94.251 L67,98.788 L62.463,94.251 C62.1283154,93.9163155 61.5856846,93.9163155 61.251,94.251 C60.9163155,94.5856846 60.9163155,95.1283154 61.251,95.463 L65.788,100 L61.251,104.537 C61.034497,104.753503 60.949943,105.069063 61.0291886,105.364811 C61.1084341,105.66056 61.33944,105.891566 61.6351886,105.970811 C61.9309371,106.050057 62.2464971,105.965503 62.463,105.749 L67,101.212 L71.537,105.749 C71.8716846,106.083685 72.4143154,106.083685 72.749,105.749 C73.0836845,105.414315 73.0836845,104.871685 72.749,104.537 L68.212,100 Z" id="searchbox-cross-3" fill="#333333" fill-rule="nonzero"></path>
            <g id="dropdown-arrow" transform="translate(0.000000, 109.000000)" fill-rule="nonzero" fill="#666666">
                <polygon id="Shape" points="8 0 4 6 0 0"></polygon>
            </g>
            <g id="dropdown-arrow-2" transform="translate(9.000000, 109.000000)" fill-rule="nonzero" fill="#333333">
                <polygon id="Shape" points="8 0 4 6 0 0"></polygon>
            </g>
            <path d="M432.69,32.832 C432.214842,32.8219311 431.757429,33.0125195 431.43,33.357 C431.078176,33.7358055 430.894266,34.2406553 430.92,34.757 C430.902842,35.2525959 431.086779,35.7340771 431.43,36.092 C431.757429,36.4364805 432.214842,36.6270689 432.69,36.617 C433.169209,36.6252862 433.630568,36.4353146 433.965,36.092 C434.3164,35.7383016 434.506339,35.255315 434.49,34.757 C434.515239,34.2379513 434.325308,33.7314687 433.965,33.357 C433.630568,33.0136854 433.169209,32.8237138 432.69,32.832 L432.69,32.832 Z" id="Shape" fill="#D0021B" fill-rule="nonzero"></path>
            <path d="M433.05,15.792 C432.030683,15.7723524 431.023437,16.0151247 430.125,16.497 C429.283639,16.9601626 428.527732,17.5638737 427.89,18.282 L429.3,19.572 C429.738287,19.0498371 430.273022,18.6169562 430.875,18.297 C431.452313,17.9903315 432.096292,17.8306249 432.75,17.832 C433.566929,17.7738335 434.366368,18.0880955 434.925,18.687 C435.415418,19.2577004 435.677239,19.9897288 435.66,20.742 C435.664501,21.2621671 435.546304,21.7760681 435.315,22.242 C435.072282,22.7221551 434.786086,23.1790646 434.46,23.607 C434.12,24.057 433.755,24.512 433.365,24.972 C432.973999,25.4332974 432.627459,25.930507 432.33,26.457 C432.02278,27.0050531 431.785911,27.5896665 431.625,28.197 C431.45239,28.8890006 431.42684,29.6095111 431.55,30.312 L433.71,30.312 C433.62459,29.673541 433.675718,29.0242234 433.86,28.407 C434.039426,27.8407154 434.296903,27.3022017 434.625,26.807 C434.958241,26.3026986 435.318778,25.8169752 435.705,25.352 C436.094333,24.8853333 436.464333,24.4103333 436.815,23.927 C437.163344,23.4497757 437.460008,22.9368983 437.7,22.397 C437.945533,21.8290819 438.068215,21.2156677 438.06,20.597 C438.132276,19.2805066 437.635058,17.996483 436.695,17.072 C435.693209,16.18667 434.385373,15.7274026 433.05,15.792 L433.05,15.792 Z" id="Shape" fill="#D0021B" fill-rule="nonzero"></path>
            <path d="M433,0 C419.192881,0 408,11.1928813 408,25 C408,38.8071187 419.192881,50 433,50 C446.807119,50 458,38.8071187 458,25 C458,18.3695878 455.366079,12.0107399 450.67767,7.32233047 C445.98926,2.63392101 439.630412,1.33226763e-15 433,0 Z M433,48.5 C420.021308,48.5 409.5,37.9786916 409.5,25 C409.5,12.0213084 420.021308,1.5 433,1.5 C445.978692,1.5 456.5,12.0213084 456.5,25 C456.485121,37.9725235 445.972524,48.485121 433,48.5 Z" id="Shape" fill="#D0021B" fill-rule="nonzero"></path>
            <path d="M535,50 C548.807119,50 560,38.8071187 560,25 C560,11.1928813 548.807119,8.8817842e-16 535,0 C521.192881,-8.8817842e-16 510,11.1928813 510,25 C510,38.8071187 521.192881,50 535,50 Z M535,1.5 C547.978692,1.5 558.5,12.0213084 558.5,25 C558.5,37.9786916 547.978692,48.5 535,48.5 C522.021308,48.5 511.5,37.9786916 511.5,25 C511.514879,12.0274765 522.027476,1.51487897 535,1.5 Z" id="Shape" fill="#27A8E0" fill-rule="nonzero"></path>
            <path d="M252.47,79.92 C252.464673,79.9121407 252.458649,79.9047776 252.452,79.898 L250.145,77.591 C249.938884,77.3852726 249.605116,77.3852726 249.399,77.591 L239.145,87.844 C239.116259,87.873423 239.092302,87.907165 239.074,87.944 C239.066088,87.955293 239.058746,87.9669742 239.052,87.979 C239.042863,87.9947515 239.034843,88.0111251 239.028,88.028 C239.011166,88.051484 238.998949,88.0779538 238.992,88.106 L238.057,91.539 C238.033236,91.6665032 238.074923,91.797433 238.168031,91.8877254 C238.261139,91.9780178 238.393286,92.0156662 238.52,91.988 L241.929,91.058 C241.955414,91.0552445 241.980444,91.0448155 242.001,91.028 C242.079267,91.0039291 242.150603,90.9614017 242.209,90.904 L252.462,80.651 C252.660708,80.4490893 252.664242,80.1262112 252.47,79.92 Z M251.344,80.281 L241.675,89.95 L240.1,88.378 L249.769,78.709 L251.344,80.281 Z" id="Shape" fill="#666666" fill-rule="nonzero"></path>
            <path d="M250.4,76.825 L253.177,79.602 C253.204572,79.6296017 253.241986,79.6451106 253.281,79.6451106 C253.320014,79.6451106 253.357428,79.6296017 253.385,79.602 C254.186284,78.7738794 254.175434,77.456192 253.360621,76.6413791 C252.545808,75.8265661 251.228121,75.8157157 250.4,76.617 C250.372398,76.6445723 250.356889,76.6819861 250.356889,76.721 C250.356889,76.7600139 250.372398,76.7974277 250.4,76.825 L250.4,76.825 Z" id="Shape" fill="#666666" fill-rule="nonzero"></path>
            <path d="M269.389,78.2 L265.689,78.2 C265.64395,78.201428 265.60051,78.1831759 265.57,78.15 C265.536948,78.1102078 265.522727,78.0580627 265.531,78.007 C265.545278,77.8824983 265.547288,77.7568948 265.537,77.632 C265.469798,76.7221612 264.719208,76.0140903 263.807,76 L262.192,76 C261.280991,76.0224221 260.533324,76.7278339 260.458,77.636 C260.447705,77.7612281 260.449714,77.8871641 260.464,78.012 C260.470667,78.0620514 260.455763,78.1125792 260.423,78.151 C260.393729,78.1844927 260.35148,78.2037961 260.307,78.204 L256.607,78.204 C256.347427,78.2157836 256.14304,78.4296597 256.14304,78.6895 C256.14304,78.9493403 256.347427,79.1632164 256.607,79.175 L269.386,79.175 C269.645573,79.1632164 269.84996,78.9493403 269.84996,78.6895 C269.84996,78.4296597 269.645573,78.2157836 269.386,78.204 L269.389,78.2 Z M264.6,77.8 C264.6,77.977 264.6,78.178 263.808,78.178 L262.192,78.178 C261.4,78.178 261.4,77.978 261.4,77.8 C261.391621,77.353596 261.745638,76.9843815 262.192,76.974 L263.808,76.974 C264.254362,76.9843815 264.608379,77.353596 264.6,77.8 Z" id="Shape" fill="#666666" fill-rule="nonzero"></path>
            <path d="M268.458,79.873 C268.18998,79.8735515 267.972999,80.0909797 267.973,80.359 L267.973,90.619 C267.972449,90.8450461 267.789047,91.0280007 267.563,91.028 L258.437,91.028 C258.211344,91.0274503 258.02855,90.8446564 258.028,90.619 L258.028,80.359 C258.036113,80.180291 257.945392,80.0115734 257.791836,79.9197944 C257.638281,79.8280155 257.446719,79.8280155 257.293164,79.9197944 C257.139608,80.0115734 257.048887,80.180291 257.057,80.359 L257.057,90.619 C257.058102,91.3806962 257.675304,91.9978985 258.437,91.999 L267.563,91.999 C268.324859,91.9979 268.942348,91.380858 268.944,90.619 L268.944,80.359 C268.944,80.0905896 268.72641,79.873 268.458,79.873 Z" id="Shape" fill="#666666" fill-rule="nonzero"></path>
            <path d="M261.063,88.941 L261.063,81.969 C261.051216,81.7094271 260.83734,81.5050397 260.5775,81.5050397 C260.31766,81.5050397 260.103784,81.7094271 260.092,81.969 L260.092,88.941 C260.083887,89.119709 260.174608,89.2884266 260.328164,89.3802056 C260.481719,89.4719845 260.673281,89.4719845 260.826836,89.3802056 C260.980392,89.2884266 261.071113,89.119709 261.063,88.941 L261.063,88.941 Z" id="Shape" fill="#666666" fill-rule="nonzero"></path>
            <path d="M263.486,88.941 L263.486,81.969 C263.474216,81.7094271 263.26034,81.5050397 263.0005,81.5050397 C262.74066,81.5050397 262.526784,81.7094271 262.515,81.969 L262.515,88.941 C262.506887,89.119709 262.597608,89.2884266 262.751164,89.3802056 C262.904719,89.4719845 263.096281,89.4719845 263.249836,89.3802056 C263.403392,89.2884266 263.494113,89.119709 263.486,88.941 L263.486,88.941 Z" id="Shape" fill="#666666" fill-rule="nonzero"></path>
            <path d="M265.907,88.941 L265.907,81.969 C265.895216,81.7094271 265.68134,81.5050397 265.4215,81.5050397 C265.16166,81.5050397 264.947784,81.7094271 264.936,81.969 L264.936,88.941 C264.927887,89.119709 265.018608,89.2884266 265.172164,89.3802056 C265.325719,89.4719845 265.517281,89.4719845 265.670836,89.3802056 C265.824392,89.2884266 265.915113,89.119709 265.907,88.941 L265.907,88.941 Z" id="Shape" fill="#666666" fill-rule="nonzero"></path>
            <path d="M161,76 C156.581722,76 153,79.581722 153,84 C153,88.418278 156.581722,92 161,92 C165.418278,92 169,88.418278 169,84 C168.986821,79.5871925 165.412807,76.0131792 161,76 L161,76 Z M161,90.933 C158.195863,90.933 155.66784,89.2438288 154.594743,86.6531442 C153.521647,84.0624597 154.114805,81.0804528 156.097629,79.0976287 C158.080453,77.1148046 161.06246,76.5216465 163.653144,77.5947432 C166.243829,78.6678399 167.933,81.1958633 167.933,84 C167.928591,87.8271626 164.827163,90.9285915 161,90.933 L161,90.933 Z" id="Shape" fill="#333333" fill-rule="nonzero"></path>
            <circle id="Oval" fill="#333333" fill-rule="nonzero" cx="161" cy="84" r="4.267"></circle>
            <path d="M127,77.067 C130.82899,77.067 133.933,80.1710098 133.933,84 C133.933,87.8289902 130.82899,90.933 127,90.933 C123.17101,90.933 120.067,87.8289902 120.067,84 C120.071409,80.1728374 123.172837,77.0714085 127,77.067 L127,77.067 Z M127,76 C122.587193,76.0131792 119.013179,79.5871925 119,84 L119,84 C119,88.418278 122.581722,92 127,92 C131.418278,92 135,88.418278 135,84 L135,84 C134.986821,79.5871925 131.412807,76.0131792 127,76 Z" id="Shape" fill="#AAAAAA" fill-rule="nonzero"></path>
            <path d="M144,77.067 C147.82899,77.067 150.933,80.1710098 150.933,84 C150.933,87.8289902 147.82899,90.933 144,90.933 C140.17101,90.933 137.067,87.8289902 137.067,84 C137.071409,80.1728374 140.172837,77.0714085 144,77.067 L144,77.067 Z M144,76 C139.587193,76.0131792 136.013179,79.5871925 136,84 L136,84 C136,88.418278 139.581722,92 144,92 C148.418278,92 152,88.418278 152,84 L152,84 C151.986821,79.5871925 148.412807,76.0131792 144,76 L144,76 Z" id="Shape" fill="#333333" fill-rule="nonzero"></path>
            <path d="M288,92 C287.933488,87.7976508 284.718813,84.3168446 280.535,83.917 C282.628161,83.6821119 284.175656,81.8566939 284.064755,79.7533162 C283.953854,77.6499385 282.222982,75.9973731 280.116726,75.9839003 C278.010469,75.9704274 276.258598,77.6007152 276.120799,79.702502 C275.982999,81.8042889 277.507015,83.6493541 279.597,83.911 C276.23432,84.0152924 273.305651,86.2354643 272.297,89.445 L272.297,89.445 L272.297,89.445 C272.102608,90.282853 272.002983,91.139897 272,92 L288,92 Z" id="Shape" fill="#666666" fill-rule="nonzero"></path>
            <path d="M302.667,81.333 L301.434,81.333 L301.434,78.1 C301.434,76.940202 300.493798,76 299.334,76 L294.667,76 C293.507202,76 292.567,76.940202 292.567,78.1 L292.567,81.333 L291.334,81.333 C290.98012,81.3327344 290.640657,81.4731952 290.390426,81.7234263 C290.140195,81.9736574 289.999734,82.3131199 290,82.667 L290,90.667 C290,91.4031956 290.596804,92 291.333,92 L302.667,92 C303.403196,92 304,91.4031956 304,90.667 L304,82.667 C304.000265,82.3132932 303.859942,81.9739825 303.609927,81.7237801 C303.359912,81.4735778 303.020707,81.3329999 302.667,81.333 Z M294.1,78.1 C294.1,77.7872447 294.353245,77.5335516 294.666,77.533 L299.333,77.533 C299.644177,77.5373146 299.895235,77.7888159 299.899,78.1 L299.899,81.333 L294.099,81.333 L294.1,78.1 Z M297.461,86.886 L297.461,88.167 L296.537,88.167 L296.537,86.886 C296.174822,86.6768962 295.998244,86.2506013 296.106485,85.8466437 C296.214725,85.4426862 296.580792,85.1617925 296.999,85.1617925 C297.417208,85.1617925 297.783275,85.4426862 297.891515,85.8466437 C297.999756,86.2506013 297.823178,86.6768962 297.461,86.886 Z" id="Shape" fill="#666666" fill-rule="nonzero"></path>
            <path d="M322,92 C321.933488,87.7976508 318.718813,84.3168446 314.535,83.917 C316.628161,83.6821119 318.175656,81.8566939 318.064755,79.7533162 C317.953854,77.6499385 316.222982,75.9973731 314.116726,75.9839003 C312.010469,75.9704274 310.258598,77.6007152 310.120799,79.702502 C309.982999,81.8042889 311.507015,83.6493541 313.597,83.911 C310.23432,84.0152924 307.305651,86.2354643 306.297,89.445 L306.297,89.445 L306.297,89.445 C306.102608,90.282853 306.002983,91.139897 306,92 L322,92 Z" id="Shape" fill="#EC1C24" fill-rule="nonzero"></path>
            <path d="M336.667,81.333 L335.434,81.333 L335.434,78.1 C335.434,77.5430454 335.212751,77.0089022 334.818924,76.6150758 C334.425098,76.2212494 333.890955,76 333.334,76 L328.667,76 C328.110045,76 327.575902,76.2212494 327.182076,76.6150758 C326.788249,77.0089022 326.567,77.5430454 326.567,78.1 L326.567,81.333 L325.334,81.333 C324.98012,81.3327344 324.640657,81.4731952 324.390426,81.7234263 C324.140195,81.9736574 323.999734,82.3131199 324,82.667 L324,90.667 C324,91.4031956 324.596804,92 325.333,92 L336.667,92 C337.403196,92 338,91.4031956 338,90.667 L338,82.667 C338.000265,82.3132932 337.859942,81.9739825 337.609927,81.7237801 C337.359912,81.4735778 337.020707,81.3329999 336.667,81.333 Z M328.1,78.1 C328.1,77.7872447 328.353245,77.5335516 328.666,77.533 L333.333,77.533 C333.644177,77.5373146 333.895235,77.7888159 333.899,78.1 L333.899,81.333 L328.099,81.333 L328.1,78.1 Z M331.461,86.886 L331.461,88.167 L330.537,88.167 L330.537,86.886 C330.174822,86.6768962 329.998244,86.2506013 330.106485,85.8466437 C330.214725,85.4426862 330.580792,85.1617925 330.999,85.1617925 C331.417208,85.1617925 331.783275,85.4426862 331.891515,85.8466437 C331.999756,86.2506013 331.823178,86.6768962 331.461,86.886 Z" id="Shape" fill="#EC1C24" fill-rule="nonzero"></path>
            <path d="M184.47,79.92 C184.464673,79.9121407 184.458649,79.9047776 184.452,79.898 L182.145,77.591 C181.938884,77.3852726 181.605116,77.3852726 181.399,77.591 L171.145,87.844 C171.116259,87.873423 171.092302,87.907165 171.074,87.944 C171.066088,87.955293 171.058746,87.9669742 171.052,87.979 C171.042863,87.9947515 171.034843,88.0111251 171.028,88.028 C171.011166,88.051484 170.998949,88.0779538 170.992,88.106 L170.057,91.539 C170.033236,91.6665032 170.074923,91.797433 170.168031,91.8877254 C170.261139,91.9780178 170.393286,92.0156662 170.52,91.988 L173.929,91.058 C173.955414,91.0552445 173.980444,91.0448155 174.001,91.028 C174.079267,91.0039291 174.150603,90.9614017 174.209,90.904 L184.462,80.651 C184.660708,80.4490893 184.664242,80.1262112 184.47,79.92 Z M183.344,80.281 L173.675,89.95 L172.1,88.378 L181.769,78.709 L183.344,80.281 Z" id="Shape" fill="#AAAAAA" fill-rule="nonzero"></path>
            <path d="M182.4,76.825 L185.177,79.602 C185.204572,79.6296017 185.241986,79.6451106 185.281,79.6451106 C185.320014,79.6451106 185.357428,79.6296017 185.385,79.602 C186.186284,78.7738794 186.175434,77.456192 185.360621,76.6413791 C184.545808,75.8265661 183.228121,75.8157157 182.4,76.617 C182.372398,76.6445723 182.356889,76.6819861 182.356889,76.721 C182.356889,76.7600139 182.372398,76.7974277 182.4,76.825 Z" id="Shape" fill="#AAAAAA" fill-rule="nonzero"></path>
            <path d="M201.389,78.2 L197.689,78.2 C197.64395,78.201428 197.60051,78.1831759 197.57,78.15 C197.536948,78.1102078 197.522727,78.0580627 197.531,78.007 C197.545278,77.8824983 197.547288,77.7568948 197.537,77.632 C197.469798,76.7221612 196.719208,76.0140903 195.807,76 L194.192,76 C193.280991,76.0224221 192.533324,76.7278339 192.458,77.636 C192.447705,77.7612281 192.449714,77.8871641 192.464,78.012 C192.470667,78.0620514 192.455763,78.1125792 192.423,78.151 C192.393729,78.1844927 192.35148,78.2037961 192.307,78.204 L188.607,78.204 C188.347427,78.2157836 188.14304,78.4296597 188.14304,78.6895 C188.14304,78.9493403 188.347427,79.1632164 188.607,79.175 L201.386,79.175 C201.645573,79.1632164 201.84996,78.9493403 201.84996,78.6895 C201.84996,78.4296597 201.645573,78.2157836 201.386,78.204 L201.389,78.2 Z M196.6,77.8 C196.6,77.977 196.6,78.178 195.808,78.178 L194.192,78.178 C193.4,78.178 193.4,77.978 193.4,77.8 C193.391621,77.353596 193.745638,76.9843815 194.192,76.974 L195.808,76.974 C196.254362,76.9843815 196.608379,77.353596 196.6,77.8 L196.6,77.8 Z" id="Shape" fill="#AAAAAA" fill-rule="nonzero"></path>
            <path d="M200.458,79.873 C200.18998,79.8735515 199.972999,80.0909797 199.973,80.359 L199.973,90.619 C199.972449,90.8450461 199.789047,91.0280007 199.563,91.028 L190.437,91.028 C190.211344,91.0274503 190.02855,90.8446564 190.028,90.619 L190.028,80.359 C190.036113,80.180291 189.945392,80.0115734 189.791836,79.9197944 C189.638281,79.8280155 189.446719,79.8280155 189.293164,79.9197944 C189.139608,80.0115734 189.048887,80.180291 189.057,80.359 L189.057,90.619 C189.058102,91.3806962 189.675304,91.9978985 190.437,91.999 L199.563,91.999 C200.324859,91.9979 200.942348,91.380858 200.944,90.619 L200.944,80.359 C200.944,80.0905896 200.72641,79.873 200.458,79.873 Z" id="Shape" fill="#AAAAAA" fill-rule="nonzero"></path>
            <path d="M193.063,88.941 L193.063,81.969 C193.051216,81.7094271 192.83734,81.5050397 192.5775,81.5050397 C192.31766,81.5050397 192.103784,81.7094271 192.092,81.969 L192.092,88.941 C192.083887,89.119709 192.174608,89.2884266 192.328164,89.3802056 C192.481719,89.4719845 192.673281,89.4719845 192.826836,89.3802056 C192.980392,89.2884266 193.071113,89.119709 193.063,88.941 L193.063,88.941 Z" id="Shape" fill="#AAAAAA" fill-rule="nonzero"></path>
            <path d="M195.486,88.941 L195.486,81.969 C195.474216,81.7094271 195.26034,81.5050397 195.0005,81.5050397 C194.74066,81.5050397 194.526784,81.7094271 194.515,81.969 L194.515,88.941 C194.506887,89.119709 194.597608,89.2884266 194.751164,89.3802056 C194.904719,89.4719845 195.096281,89.4719845 195.249836,89.3802056 C195.403392,89.2884266 195.494113,89.119709 195.486,88.941 L195.486,88.941 Z" id="Shape" fill="#AAAAAA" fill-rule="nonzero"></path>
            <path d="M197.907,88.941 L197.907,81.969 C197.895216,81.7094271 197.68134,81.5050397 197.4215,81.5050397 C197.16166,81.5050397 196.947784,81.7094271 196.936,81.969 L196.936,88.941 C196.927887,89.119709 197.018608,89.2884266 197.172164,89.3802056 C197.325719,89.4719845 197.517281,89.4719845 197.670836,89.3802056 C197.824392,89.2884266 197.915113,89.119709 197.907,88.941 L197.907,88.941 Z" id="Shape" fill="#AAAAAA" fill-rule="nonzero"></path>
            <path d="M220,92 C219.933488,87.7976508 216.718813,84.3168446 212.535,83.917 C214.628161,83.6821119 216.175656,81.8566939 216.064755,79.7533162 C215.953854,77.6499385 214.222982,75.9973731 212.116726,75.9839003 C210.010469,75.9704274 208.258598,77.6007152 208.120799,79.702502 C207.982999,81.8042889 209.507015,83.6493541 211.597,83.911 C208.23432,84.0152924 205.305651,86.2354643 204.297,89.445 L204.297,89.445 L204.297,89.445 C204.102608,90.282853 204.002983,91.139897 204,92 L220,92 Z" id="Shape" fill="#AAAAAA" fill-rule="nonzero"></path>
            <path d="M234.667,81.333 L233.434,81.333 L233.434,78.1 C233.434,76.940202 232.493798,76 231.334,76 L226.667,76 C225.507202,76 224.567,76.940202 224.567,78.1 L224.567,81.333 L223.334,81.333 C222.98012,81.3327344 222.640657,81.4731952 222.390426,81.7234263 C222.140195,81.9736574 221.999734,82.3131199 222,82.667 L222,90.667 C222,91.4031956 222.596804,92 223.333,92 L234.667,92 C235.403196,92 236,91.4031956 236,90.667 L236,82.667 C236.000265,82.3132932 235.859942,81.9739825 235.609927,81.7237801 C235.359912,81.4735778 235.020707,81.3329999 234.667,81.333 Z M226.1,78.1 C226.1,77.7872447 226.353245,77.5335516 226.666,77.533 L231.333,77.533 C231.644177,77.5373146 231.895235,77.7888159 231.899,78.1 L231.899,81.333 L226.099,81.333 L226.1,78.1 Z M229.461,86.886 L229.461,88.167 L228.537,88.167 L228.537,86.886 C228.174822,86.6768962 227.998244,86.2506013 228.106485,85.8466437 C228.214725,85.4426862 228.580792,85.1617925 228.999,85.1617925 C229.417208,85.1617925 229.783275,85.4426862 229.891515,85.8466437 C229.999756,86.2506013 229.823178,86.6768962 229.461,86.886 L229.461,86.886 Z" id="Shape" fill="#AAAAAA" fill-rule="nonzero"></path>
            <path d="M18.986,113.283 C19.791,114.105 20.608,114.915 21.426,115.725 C21.5654658,115.89977 21.7769036,116.001552 22.0005,116.001552 C22.2240964,116.001552 22.4355342,115.89977 22.575,115.725 C23.393,114.915 24.209,114.105 25.015,113.283 C25.210223,113.105947 25.2929321,112.836275 25.2305459,112.580213 C25.1681597,112.324151 24.9706779,112.122743 24.7158937,112.055329 C24.4611095,111.987915 24.189861,112.0653 24.009,112.257 C23.623,112.625 23.264,113.021 22.73,113.574 C22.73,110.687 22.73,111.726 22.73,109.122 C22.73,108.68 22.722,108.253 22.241,108.052 C22.0856813,107.98451 21.9093187,107.98451 21.754,108.052 C21.273,108.252 21.264,108.68 21.265,109.122 C21.272,111.722 21.265,110.688 21.265,113.574 C20.731,113.021 20.372,112.625 19.986,112.257 C19.805139,112.0653 19.5338905,111.987915 19.2791063,112.055329 C19.0243221,112.122743 18.8268403,112.324151 18.7644541,112.580213 C18.7020679,112.836275 18.784777,113.105947 18.98,113.283 L18.986,113.283 Z" id="Shape" fill="#333333" fill-rule="nonzero"></path>
            <path d="M34.015,110.721 C33.21,109.899 32.393,109.089 31.575,108.279 C31.4355342,108.10423 31.2240964,108.002448 31.0005,108.002448 C30.7769036,108.002448 30.5654658,108.10423 30.426,108.279 C29.608,109.089 28.792,109.899 27.986,110.721 C27.790777,110.898053 27.7080679,111.167725 27.7704541,111.423787 C27.8328403,111.679849 28.0303221,111.881257 28.2851063,111.948671 C28.5398905,112.016085 28.811139,111.9387 28.992,111.747 C29.378,111.379 29.737,110.983 30.271,110.43 C30.271,113.317 30.271,112.278 30.271,114.882 C30.271,115.324 30.279,115.751 30.76,115.952 C30.9153187,116.01949 31.0916813,116.01949 31.247,115.952 C31.728,115.752 31.737,115.324 31.736,114.882 C31.729,112.282 31.736,113.316 31.736,110.43 C32.27,110.983 32.629,111.379 33.015,111.747 C33.195861,111.9387 33.4671095,112.016085 33.7218937,111.948671 C33.9766779,111.881257 34.1741597,111.679849 34.2365459,111.423787 C34.2989321,111.167725 34.216223,110.898053 34.021,110.721 L34.015,110.721 Z" id="Shape" fill="#333333" fill-rule="nonzero"></path>
            <path d="M381.2,85.725 C381.339466,85.8997703 381.550904,86.0015518 381.7745,86.0015518 C381.998096,86.0015518 382.209534,85.8997703 382.349,85.725 C383.167,84.915 383.983,84.105 384.789,83.283 C384.984223,83.1059473 385.066932,82.8362746 385.004546,82.5802128 C384.94216,82.324151 384.744678,82.1227431 384.489894,82.0553289 C384.235109,81.9879147 383.963861,82.0652997 383.783,82.257 C383.397,82.625 383.038,83.021 382.504,83.575 C382.504,80.688 382.504,80.727 382.504,78.123 C382.504,77.681 382.496,77.254 382.015,77.053 C381.859706,76.9853896 381.683294,76.9853896 381.528,77.053 C381.047,77.253 381.038,77.681 381.039,78.123 C381.046,80.723 381.039,80.689 381.039,83.575 C380.505,83.022 380.146,82.626 379.76,82.257 C379.579139,82.0652997 379.307891,81.9879147 379.053106,82.0553289 C378.798322,82.1227431 378.60084,82.324151 378.538454,82.5802128 C378.476068,82.8362746 378.558777,83.1059473 378.754,83.283 C379.569,84.1 380.386,84.915 381.2,85.725 Z" id="Shape" fill="#666666" fill-rule="nonzero"></path>
            <path d="M389.265,85 C388.859299,85.0005509 388.530551,85.3292991 388.53,85.735 L388.53,89.369 C388.52945,89.4569748 388.457977,89.5280017 388.37,89.528 L375.631,89.528 C375.543187,89.528 375.472,89.4568133 375.472,89.369 L375.472,85.737 C375.472,85.3307946 375.142705,85.0015 374.7365,85.0015 C374.330295,85.0015 374.001,85.3307946 374.001,85.737 L374.001,89.371 C374.002653,90.2703767 374.731622,90.9988993 375.631,91 L388.37,91 C389.26915,90.9983509 389.997799,90.2701488 390,89.371 L390,85.737 C390.000265,85.5418006 389.922977,85.3544907 389.785138,85.2162763 C389.647299,85.078062 389.460199,85.000265 389.265,85 Z" id="Shape" fill="#666666" fill-rule="nonzero"></path>
            <path d="M378.777,87.512 L384.777,87.512 C385.191214,87.512 385.527,87.1762136 385.527,86.762 C385.527,86.3477864 385.191214,86.012 384.777,86.012 L378.777,86.012 C378.362786,86.012 378.027,86.3477864 378.027,86.762 C378.027,87.1762136 378.362786,87.512 378.777,87.512 Z" id="Shape" fill="#666666" fill-rule="nonzero"></path>
            <path d="M194.009,63.269 C194.285142,63.269 194.509,63.0451424 194.509,62.769 C194.509,62.4928576 194.285142,62.269 194.009,62.269 L188.5,62.269 L188.5,55.5 L185.5,55.5 L185.5,62.267 L179.992,62.267 C179.715858,62.267 179.492,62.4908576 179.492,62.767 C179.492,63.0431424 179.715858,63.267 179.992,63.267 L185.5,63.267 L185.5,70.5 L188.5,70.5 L188.5,63.269 L194.009,63.269 Z" id="Shape" fill="#333333" fill-rule="nonzero"></path>
            <path d="M197.465,62.951 C197.47828,62.9233748 197.488992,62.8945869 197.497,62.865 C197.501171,62.802069 197.501171,62.738931 197.497,62.676 C197.488908,62.6450124 197.477857,62.6148739 197.464,62.586 C197.453449,62.5546761 197.43971,62.5245181 197.423,62.496 C197.423,62.49 197.423,62.482 197.414,62.476 L194.514,58.476 C194.351904,58.2520486 194.038951,58.2019045 193.815,58.3640001 C193.591049,58.5260956 193.540904,58.8390485 193.703,59.063 L196.39,62.769 L193.7,66.475 C193.537628,66.6989515 193.587549,67.0121283 193.8115,67.1745 C194.035451,67.3368717 194.348628,67.2869514 194.511,67.063 L197.411,63.063 C197.411,63.057 197.416,63.049 197.42,63.042 C197.438149,63.013328 197.453231,62.9828269 197.465,62.951 L197.465,62.951 Z" id="Shape" fill="#333333" fill-rule="nonzero"></path>
            <path d="M177.61,62.769 L180.297,59.063 C180.401857,58.9183074 180.421557,58.7286652 180.348679,58.5655097 C180.2758,58.4023541 180.121415,58.2904725 179.943678,58.2720096 C179.765942,58.2535467 179.591857,58.3313074 179.487,58.476 L176.587,62.476 C176.587,62.482 176.587,62.489 176.578,62.495 C176.559583,62.5265541 176.544821,62.5601038 176.534,62.595 C176.478283,62.7071265 176.478283,62.8388735 176.534,62.951 C176.544821,62.9858962 176.559583,63.0194459 176.578,63.051 C176.578,63.057 176.578,63.064 176.587,63.07 L179.487,67.07 C179.649372,67.2936753 179.962325,67.3433717 180.186,67.181 C180.409675,67.0186283 180.459372,66.7056753 180.297,66.482 L177.61,62.769 Z" id="Shape" fill="#333333" fill-rule="nonzero"></path>
            <path d="M484,0 C470.192881,0 459,11.1928813 459,25 C459,38.8071187 470.192881,50 484,50 C497.807119,50 509,38.8071187 509,25 C509,18.3695878 506.366079,12.0107399 501.67767,7.32233047 C496.98926,2.63392101 490.630412,1.33226763e-15 484,8.8817842e-16 L484,0 Z M484,48.5 C471.021308,48.5 460.5,37.9786916 460.5,25 C460.5,12.0213084 471.021308,1.5 484,1.5 C496.978692,1.5 507.5,12.0213084 507.5,25 C507.485121,37.9725235 496.972524,48.485121 484,48.5 L484,48.5 Z" id="Shape" fill="#00A44D" fill-rule="nonzero"></path>
            <path d="M493.068,15.91 C492.688933,15.9395819 492.337469,16.1196349 492.092,16.41 L480.092,30.586 L475.792,26.569 C475.517567,26.3158882 475.156288,26.1780365 474.783,26.184 L474.756,26.184 C474.177565,26.2072061 473.66963,26.5754688 473.46773,27.1180199 C473.265831,27.6605709 473.409454,28.2712983 473.832,28.667 L479.237,33.712 C479.530115,33.9741464 479.914139,34.1112467 480.307,34.094 C480.695265,34.0683071 481.056325,33.8856105 481.307,33.588 L494.277,18.262 C494.521887,17.9730621 494.641387,17.5983673 494.609,17.221 C494.581834,16.8406902 494.401379,16.4877199 494.109,16.243 C493.817847,16.0020549 493.444939,15.8827675 493.068,15.91 Z" id="Shape" fill="#00A44D" fill-rule="nonzero"></path>
            <path d="M354.943,86.631 L353.366,85.054 C353.225082,84.9133744 352.996918,84.9133744 352.856,85.054 L348.749,89.161 C348.729396,89.1816462 348.713195,89.2052736 348.701,89.231 L348.686,89.255 C348.67955,89.2659246 348.67387,89.2772854 348.669,89.289 C348.657633,89.3053066 348.649487,89.3236353 348.645,89.343 L348.006,91.689 C347.989374,91.7763329 348.017819,91.8661692 348.081681,91.9280167 C348.145543,91.9898641 348.236245,92.0154162 348.323,91.996 L350.653,91.36 C350.671033,91.3579317 350.688066,91.3506317 350.702,91.339 C350.755448,91.3224257 350.804142,91.2932775 350.844,91.254 L354.952,87.146 C355.088022,87.0078663 355.090232,86.7868262 354.957,86.646 L354.943,86.631 Z M350.478,90.601 L349.4,89.527 L353.108,85.819 L354.183,86.894 L350.478,90.601 Z" id="Shape" fill="#AAAAAA" fill-rule="nonzero"></path>
            <path d="M355.579,84.389 C355.015327,83.8264977 354.102673,83.8264977 353.539,84.389 C353.520069,84.4077767 353.50942,84.4333362 353.50942,84.46 C353.50942,84.4866638 353.520069,84.5122233 353.539,84.531 L355.439,86.431 C355.457777,86.4499313 355.483336,86.4605798 355.51,86.4605798 C355.536664,86.4605798 355.562223,86.4499313 355.581,86.431 C356.144282,85.8665451 356.143387,84.9523505 355.579,84.389 L355.579,84.389 Z" id="Shape" fill="#AAAAAA" fill-rule="nonzero"></path>
            <path d="M341,82.248 L353,82.248 L353,83.3 C353.288876,83.0549997 353.631496,82.881634 354,82.794 L354,78.794 C354,78.2417153 353.552285,77.794 353,77.794 L352,77.794 L352,76.5 C352,76.2238576 351.776142,76 351.5,76 L349.5,76 C349.223858,76 349,76.2238576 349,76.5 L349,77.786 L345,77.786 L345,76.5 C345,76.2238576 344.776142,76 344.5,76 L342.5,76 C342.223858,76 342,76.2238576 342,76.5 L342,77.786 L341,77.786 C340.447715,77.786 340,78.2337153 340,78.786 L340,89.034 C340,89.5862847 340.447715,90.034 341,90.034 L347.419,90.034 L347.673,89.101 C347.679,89.078 347.692,89.057 347.699,89.034 L341,89.034 L341,82.248 Z M350,77 L351,77 L351,79.5 L350,79.5 L350,77 Z M343,77 L344,77 L344,79.5 L343,79.5 L343,77 Z M341,78.786 L342,78.786 L342,80 C342,80.2761424 342.223858,80.5 342.5,80.5 L344.5,80.5 C344.776142,80.5 345,80.2761424 345,80 L345,78.788 L349,78.788 L349,80 C349,80.2761424 349.223858,80.5 349.5,80.5 L351.5,80.5 C351.776142,80.5 352,80.2761424 352,80 L352,78.788 L353,78.788 L353,81.248 L341,81.248 L341,78.786 Z" id="Shape" fill="#AAAAAA" fill-rule="nonzero"></path>
            <path d="M371.943,86.631 L370.366,85.054 C370.225082,84.9133744 369.996918,84.9133744 369.856,85.054 L365.749,89.161 C365.729396,89.1816462 365.713195,89.2052736 365.701,89.231 L365.686,89.255 C365.67955,89.2659246 365.67387,89.2772854 365.669,89.289 C365.657633,89.3053066 365.649487,89.3236353 365.645,89.343 L365.006,91.689 C364.989374,91.7763329 365.017819,91.8661692 365.081681,91.9280167 C365.145543,91.9898641 365.236245,92.0154162 365.323,91.996 L367.653,91.36 C367.671033,91.3579317 367.688066,91.3506317 367.702,91.339 C367.755448,91.3224257 367.804142,91.2932775 367.844,91.254 L371.952,87.146 C372.088022,87.0078663 372.090232,86.7868262 371.957,86.646 L371.943,86.631 Z M367.478,90.601 L366.4,89.527 L370.108,85.819 L371.183,86.894 L367.478,90.601 Z" id="Shape" fill="#666666" fill-rule="nonzero"></path>
            <path d="M372.579,84.389 C372.015327,83.8264977 371.102673,83.8264977 370.539,84.389 C370.520069,84.4077767 370.50942,84.4333362 370.50942,84.46 C370.50942,84.4866638 370.520069,84.5122233 370.539,84.531 L372.439,86.431 C372.457777,86.4499313 372.483336,86.4605798 372.51,86.4605798 C372.536664,86.4605798 372.562223,86.4499313 372.581,86.431 C373.144282,85.8665451 373.143387,84.9523505 372.579,84.389 L372.579,84.389 Z" id="Shape" fill="#666666" fill-rule="nonzero"></path>
            <path d="M358,82.248 L370,82.248 L370,83.3 C370.288876,83.0549997 370.631496,82.881634 371,82.794 L371,78.794 C371,78.2417153 370.552285,77.794 370,77.794 L369,77.794 L369,76.5 C369,76.2238576 368.776142,76 368.5,76 L366.5,76 C366.223858,76 366,76.2238576 366,76.5 L366,77.786 L362,77.786 L362,76.5 C362,76.2238576 361.776142,76 361.5,76 L359.5,76 C359.223858,76 359,76.2238576 359,76.5 L359,77.786 L358,77.786 C357.447715,77.786 357,78.2337153 357,78.786 L357,89.034 C357,89.5862847 357.447715,90.034 358,90.034 L364.419,90.034 L364.673,89.101 C364.679,89.078 364.692,89.057 364.699,89.034 L358,89.034 L358,82.248 Z M367,77 L368,77 L368,79.5 L367,79.5 L367,77 Z M360,77 L361,77 L361,79.5 L360,79.5 L360,77 Z M358,78.786 L359,78.786 L359,80 C359,80.2761424 359.223858,80.5 359.5,80.5 L361.5,80.5 C361.776142,80.5 362,80.2761424 362,80 L362,78.788 L366,78.788 L366,80 C366,80.2761424 366.223858,80.5 366.5,80.5 L368.5,80.5 C368.776142,80.5 369,80.2761424 369,80 L369,78.788 L370,78.788 L370,81.248 L358,81.248 L358,78.786 Z" id="Shape" fill="#666666" fill-rule="nonzero"></path>
            <path d="M221.585,54.308 L216.041,54.308 C215.973241,54.3103567 215.907841,54.2829547 215.862,54.233 C215.812801,54.1733219 215.791669,54.0953544 215.804,54.019 C215.825786,53.8321152 215.829136,53.6435406 215.814,53.456 C215.715981,52.0869924 214.586383,51.0208254 213.214,51.002 L210.79,51.002 C209.423873,51.0361357 208.302942,52.0941221 208.19,53.456 C208.174823,53.6442064 208.178173,53.8334485 208.2,54.021 C208.210011,54.0963148 208.187462,54.1723278 208.138,54.23 C208.094042,54.2801065 208.030656,54.3088853 207.964,54.309 L202.419,54.309 C202.027158,54.3235201 201.716995,54.6453892 201.716995,55.0375 C201.716995,55.4296108 202.027158,55.7514799 202.419,55.766 L221.587,55.766 C221.978842,55.7514799 222.289005,55.4296108 222.289005,55.0375 C222.289005,54.6453892 221.978842,54.3235201 221.587,54.309 L221.585,54.308 Z M213.213,54.265 L210.789,54.265 C209.6,54.265 209.6,53.965 209.6,53.698 C209.587161,53.0279044 210.118944,52.4737585 210.789,52.459 L213.213,52.459 C213.883065,52.4748391 214.413967,53.0298936 214.4,53.7 C214.4,53.963 214.4,54.265 213.213,54.265 L213.213,54.265 Z" id="Shape" fill="#FFFFFF" fill-rule="nonzero"></path>
            <path d="M220.187,56.811 C219.784775,56.8115517 219.459,57.1377746 219.459,57.54 L219.459,72.932 C219.458448,73.2712645 219.183265,73.5460004 218.844,73.546 L205.156,73.546 C204.817125,73.5454494 204.542551,73.2708745 204.542,72.932 L204.542,57.54 C204.542,57.1376606 204.215839,56.8115 203.8135,56.8115 C203.411161,56.8115 203.085,57.1376606 203.085,57.54 L203.085,72.932 C203.087754,74.074153 204.013844,74.9989014 205.156,75 L218.845,75 C219.988097,74.9983477 220.914348,74.0720966 220.916,72.929 L220.916,57.54 C220.916,57.1373844 220.589616,56.811 220.187,56.811 Z" id="Shape" fill="#FFFFFF" fill-rule="nonzero"></path>
            <path d="M209.1,70.414 L209.1,59.956 C209.1,59.5536606 208.773839,59.2275 208.3715,59.2275 C207.969161,59.2275 207.643,59.5536606 207.643,59.956 L207.643,70.414 C207.643,70.8163394 207.969161,71.1425 208.3715,71.1425 C208.773839,71.1425 209.1,70.8163394 209.1,70.414 Z" id="Shape" fill="#FFFFFF" fill-rule="nonzero"></path>
            <path d="M212.729,70.414 L212.729,59.956 C212.729,59.5536606 212.402839,59.2275 212.0005,59.2275 C211.598161,59.2275 211.272,59.5536606 211.272,59.956 L211.272,70.414 C211.272,70.8163394 211.598161,71.1425 212.0005,71.1425 C212.402839,71.1425 212.729,70.8163394 212.729,70.414 Z" id="Shape" fill="#FFFFFF" fill-rule="nonzero"></path>
            <path d="M216.362,70.414 L216.362,59.956 C216.362,59.5536606 216.035839,59.2275 215.6335,59.2275 C215.231161,59.2275 214.905,59.5536606 214.905,59.956 L214.905,70.414 C214.905,70.8163394 215.231161,71.1425 215.6335,71.1425 C216.035839,71.1425 216.362,70.8163394 216.362,70.414 Z" id="Shape" fill="#FFFFFF" fill-rule="nonzero"></path>
            <path d="M393.508,84.01 C393.507481,81.8362419 394.789349,79.866812 396.777215,78.9872597 C398.765082,78.1077073 401.084677,78.483632 402.693,79.946 L400.241,79.946 C399.852192,79.946 399.537,80.2611915 399.537,80.65 C399.537,81.0388085 399.852192,81.354 400.241,81.354 L404.185,81.354 C404.571599,81.354 404.885,81.0405993 404.885,80.654 L404.885,76.706 C404.885,76.3171915 404.569808,76.002 404.181,76.002 C403.792192,76.002 403.477,76.3171915 403.477,76.706 L403.477,78.772 C401.432966,77.0190213 398.555111,76.6172496 396.109129,77.7433859 C393.663147,78.8695223 392.097201,81.3172315 392.1,84.01 C392.1,84.3988085 392.415192,84.714 392.804,84.714 C393.192808,84.714 393.508,84.3988085 393.508,84.01 L393.508,84.01 Z" id="Shape" fill="#FFFFFF" fill-rule="nonzero"></path>
            <path d="M405.2,83.305 C404.813401,83.305 404.5,83.6184007 404.5,84.005 C404.49724,87.0406133 402.035615,89.5000013 399,89.5 C397.628809,89.5018985 396.307421,88.9862 395.3,88.056 L397.706,88.056 C398.094808,88.056 398.41,87.7408085 398.41,87.352 C398.41,86.9631915 398.094808,86.648 397.706,86.648 L393.762,86.648 C393.375401,86.648 393.062,86.9614007 393.062,87.348 L393.062,91.3 C393.062,91.6888085 393.377192,92.004 393.766,92.004 C394.154808,92.004 394.47,91.6888085 394.47,91.3 L394.47,89.2 C396.506151,90.9790492 399.394318,91.4035654 401.856275,90.2856688 C404.318232,89.1677723 405.899402,86.7138722 405.9,84.01 C405.901332,83.8234837 405.828171,83.6441487 405.696751,83.5117899 C405.565331,83.379431 405.386521,83.3049952 405.2,83.305 Z" id="Shape" fill="#FFFFFF" fill-rule="nonzero"></path>
            <path d="M410.508,84.01 C410.507481,81.8362419 411.789349,79.866812 413.777215,78.9872597 C415.765082,78.1077073 418.084677,78.483632 419.693,79.946 L417.241,79.946 C416.852192,79.946 416.537,80.2611915 416.537,80.65 C416.537,81.0388085 416.852192,81.354 417.241,81.354 L421.185,81.354 C421.571599,81.354 421.885,81.0405993 421.885,80.654 L421.885,76.706 C421.885,76.3171915 421.569808,76.002 421.181,76.002 C420.792192,76.002 420.477,76.3171915 420.477,76.706 L420.477,78.772 C418.432966,77.0190213 415.555111,76.6172496 413.109129,77.7433859 C410.663147,78.8695223 409.097201,81.3172315 409.1,84.01 C409.1,84.3988085 409.415192,84.714 409.804,84.714 C410.192808,84.714 410.508,84.3988085 410.508,84.01 L410.508,84.01 Z" id="Shape" fill="#666666" fill-rule="nonzero"></path>
            <path d="M422.2,83.305 C421.813401,83.305 421.5,83.6184007 421.5,84.005 C421.49724,87.0406133 419.035615,89.5000013 416,89.5 C414.628809,89.5018985 413.307421,88.9862 412.3,88.056 L414.706,88.056 C415.094808,88.056 415.41,87.7408085 415.41,87.352 C415.41,86.9631915 415.094808,86.648 414.706,86.648 L410.762,86.648 C410.375401,86.648 410.062,86.9614007 410.062,87.348 L410.062,91.3 C410.062,91.6888085 410.377192,92.004 410.766,92.004 C411.154808,92.004 411.47,91.6888085 411.47,91.3 L411.47,89.2 C413.506151,90.9790492 416.394318,91.4035654 418.856275,90.2856688 C421.318232,89.1677723 422.899402,86.7138722 422.9,84.01 C422.901332,83.8234837 422.828171,83.6441487 422.696751,83.5117899 C422.565331,83.379431 422.386521,83.3049952 422.2,83.305 Z" id="Shape" fill="#666666" fill-rule="nonzero"></path>
            <path d="M79.407,102.242 L79.407,105.911 C79.4174112,106.207353 79.2652482,106.485762 79.0101934,106.637026 C78.7551385,106.78829 78.4378615,106.78829 78.1828066,106.637026 C77.9277518,106.485762 77.7755888,106.207353 77.786,105.911 L77.786,101.444 L77.786,101.431 L77.786,94.092 C77.7755888,93.7956465 77.9277518,93.5172383 78.1828066,93.3659743 C78.4378615,93.2147103 78.7551385,93.2147103 79.0101934,93.3659743 C79.2652482,93.5172383 79.4174112,93.7956465 79.407,94.092 L79.407,98.559 L79.407,98.572 L79.407,102.241 L79.407,102.242 Z" id="Shape" fill="#666666" fill-rule="nonzero"></path>
            <path d="M79.645,99.429 L84.834,94.24 C85.0388918,94.0351082 85.3375282,93.9550888 85.6174156,94.0300844 C85.897303,94.10508 86.11592,94.323697 86.1909156,94.6035844 C86.2659112,94.8834718 86.1858918,95.1821082 85.981,95.387 L81.365,100 L85.981,104.616 C86.1858918,104.820892 86.2659112,105.119528 86.1909156,105.399416 C86.11592,105.679303 85.897303,105.89792 85.6174156,105.972916 C85.3375282,106.047911 85.0388918,105.967892 84.834,105.763 L79.645,100.574 C79.3295674,100.257506 79.3295674,99.7454935 79.645,99.429 L79.645,99.429 Z" id="Shape" fill="#666666" fill-rule="nonzero"></path>
            <path d="M93.833,99.429 L99.022,94.24 C99.3387353,93.9232647 99.8522647,93.9232647 100.169,94.24 C100.485735,94.5567353 100.485735,95.0702647 100.169,95.387 L95.553,100 L100.169,104.616 C100.373892,104.820892 100.453911,105.119528 100.378916,105.399416 C100.30392,105.679303 100.085303,105.89792 99.8054156,105.972916 C99.5255282,106.047911 99.2268918,105.967892 99.022,105.763 L93.833,100.574 C93.5175674,100.257506 93.5175674,99.7454935 93.833,99.429 L93.833,99.429 Z" id="Shape" fill="#666666" fill-rule="nonzero"></path>
            <path d="M129.594,102.242 L129.594,105.911 C129.583589,106.207353 129.735752,106.485762 129.990807,106.637026 C130.245861,106.78829 130.563139,106.78829 130.818193,106.637026 C131.073248,106.485762 131.225411,106.207353 131.215,105.911 L131.215,101.444 L131.215,101.431 L131.215,94.092 C131.225411,93.7956465 131.073248,93.5172383 130.818193,93.3659743 C130.563139,93.2147103 130.245861,93.2147103 129.990807,93.3659743 C129.735752,93.5172383 129.583589,93.7956465 129.594,94.092 L129.594,98.559 L129.594,98.572 L129.594,102.241 L129.594,102.242 Z" id="Shape" fill="#666666" fill-rule="nonzero"></path>
            <path d="M129.357,99.429 L124.168,94.24 C123.963108,94.0351082 123.664472,93.9550888 123.384584,94.0300844 C123.104697,94.10508 122.88608,94.323697 122.811084,94.6035844 C122.736089,94.8834719 122.816108,95.1821082 123.021,95.387 L127.637,100 L123.021,104.616 C122.816108,104.820892 122.736089,105.119528 122.811084,105.399416 C122.88608,105.679303 123.104697,105.89792 123.384584,105.972916 C123.664472,106.047911 123.963108,105.967892 124.168,105.763 L129.357,100.574 C129.672433,100.257506 129.672433,99.7454935 129.357,99.429 Z" id="Shape" fill="#666666" fill-rule="nonzero"></path>
            <path d="M115.169,99.429 L109.98,94.24 C109.775108,94.0351082 109.476472,93.9550888 109.196584,94.0300844 C108.916697,94.10508 108.69808,94.323697 108.623084,94.6035844 C108.548089,94.8834719 108.628108,95.1821082 108.833,95.387 L113.449,100 L108.833,104.616 C108.628108,104.820892 108.548089,105.119528 108.623084,105.399416 C108.69808,105.679303 108.916697,105.89792 109.196584,105.972916 C109.476472,106.047911 109.775108,105.967892 109.98,105.763 L115.169,100.574 C115.484433,100.257506 115.484433,99.7454935 115.169,99.429 Z" id="Shape" fill="#666666" fill-rule="nonzero"></path>
            <path d="M433,76.052 C428.609336,76.052 425.05,79.6113362 425.05,84.002 C425.05,88.3926638 428.609336,91.952 433,91.952 C437.390664,91.952 440.95,88.3926638 440.95,84.002 C440.94504,79.6133923 437.388608,76.0569598 433,76.052 Z" id="Shape" fill="#3CB669" fill-rule="nonzero"></path>
            <path d="M435.855,81.22 L431.714,85.361 L430.146,83.793 C429.979384,83.6108719 429.726224,83.5349306 429.486871,83.5952787 C429.247518,83.6556268 429.060627,83.8425184 429.000279,84.0818712 C428.939931,84.3212239 429.015872,84.5743838 429.198,84.741 L431.098,86.641 C431.164847,86.6681284 431.217872,86.7211529 431.245,86.788 C431.370839,86.9138561 431.541524,86.9845627 431.7195,86.9845627 C431.897476,86.9845627 432.068161,86.9138561 432.194,86.788 L436.809,82.173 C437.057394,81.9087695 437.050895,81.4949889 436.794326,81.2386894 C436.537756,80.9823899 436.123969,80.9763273 435.86,81.225 L435.855,81.22 Z" id="Shape" fill="#FFFFFF" fill-rule="nonzero"></path>
            <rect id="Rectangle-path" fill="#27A8E0" fill-rule="nonzero" x="533.75" y="21.032" width="2.5" height="15"></rect>
            <path d="M536.275,14.5 C535.947571,14.1555195 535.490158,13.9649311 535.015,13.975 C534.535791,13.9667138 534.074432,14.1566854 533.74,14.5 C533.3886,14.8536984 533.198661,15.336685 533.215,15.835 C533.189761,16.3540487 533.379692,16.8605313 533.74,17.235 C534.074432,17.5783146 534.535791,17.7682862 535.015,17.76 C535.490158,17.7700689 535.947571,17.5794805 536.275,17.235 C536.626824,16.8561945 536.810734,16.3513447 536.785,15.835 C536.802158,15.3394041 536.618221,14.8579229 536.275,14.5 L536.275,14.5 Z" id="Shape" fill="#27A8E0" fill-rule="nonzero"></path>
            <path d="M585.17,27.723 C585.055584,27.0673069 585.079427,26.3949417 585.24,25.749 C585.389941,25.1820746 585.611031,24.6364055 585.898,24.125 C586.175305,23.6330906 586.498761,23.1686667 586.864,22.738 C587.228,22.3093333 587.568667,21.885 587.886,21.465 C588.190818,21.0655196 588.458592,20.6390891 588.686,20.191 C588.90141,19.7559998 589.011377,19.276394 589.007,18.791 C589.023083,18.0888813 588.778718,17.405657 588.321,16.873 C587.800315,16.3134142 587.054477,16.019343 586.292,16.073 C585.681754,16.0717469 585.080636,16.2211676 584.542,16.508 C583.979152,16.8068355 583.479329,17.2115834 583.07,17.7 L581.754,16.5 C582.349572,15.8301235 583.055017,15.2667147 583.84,14.834 C584.678833,14.3851197 585.618786,14.1589111 586.57,14.177 C587.814907,14.1155793 589.03468,14.5421411 589.97,15.366 C590.847347,16.2288125 591.311103,17.4273646 591.243,18.656 C591.251094,19.2337855 591.136575,19.80672 590.907,20.337 C590.682919,20.8408598 590.406037,21.3195363 590.081,21.765 C589.755,22.213 589.41,22.6563333 589.046,23.095 C588.685463,23.5285796 588.348958,23.9815922 588.038,24.452 C587.730872,24.9162047 587.490206,25.4210992 587.323,25.952 C587.151103,26.5280938 587.103386,27.1341022 587.183,27.73 L585.17,27.723 Z M586.234,33.603 C585.790391,33.6130745 585.36321,33.4350823 585.058,33.113 C584.736947,32.7793231 584.564846,32.3297679 584.581,31.867 C584.558705,31.3871523 584.730645,30.918553 585.058,30.567 C585.363428,30.2452333 585.790462,30.0673022 586.234,30.077 C586.680964,30.0692883 587.111249,30.2466133 587.423,30.567 C587.75779,30.9147433 587.934961,31.3847893 587.913,31.867 C587.928649,32.3321629 587.751313,32.7831033 587.423,33.113 C587.11101,33.4326891 586.680608,33.6089766 586.234,33.6 L586.234,33.603 Z" id="Shape" fill="#D0021B" fill-rule="nonzero"></path>
            <path d="M586,50 L585.655,49.82 C562.855,37.954 563.615,8.98 563.625,8.688 L563.644,8.146 L564.165,8 C569.10443,6.57079413 573.92719,4.7655187 578.591,2.6 L579.041,2.4 C579.42,2.229 579.886,2 580.399,1.746 C581.03,1.435 581.731,1.089 582.434,0.771 C584.70028,-0.255022475 587.29872,-0.255022475 589.565,0.771 C590.265,1.089 590.965,1.435 591.6,1.746 C592.113,1.999 592.579,2.229 592.958,2.4 L593.405,2.6 C598.070174,4.76554313 602.894265,6.5708163 607.835,8 L608.356,8.149 L608.375,8.691 C608.385,8.982 609.141,37.956 586.344,49.823 L586,50 Z M565.113,9.279 C565.131,13.211 566.067,37.668 586,48.316 C605.951,37.659 606.872,13.21 606.888,9.279 C602.065678,7.85499348 597.354635,6.07819963 592.793,3.963 L592.347,3.763 C591.954,3.586 591.472,3.348 590.94,3.086 C590.324,2.786 589.64,2.443 588.95,2.132 C587.075099,1.28236036 584.924901,1.28236036 583.05,2.132 C582.362,2.443 581.676,2.781 581.06,3.086 C580.528,3.348 580.046,3.586 579.653,3.763 L579.204,3.963 C574.643818,6.07839015 569.93409,7.85519213 565.113,9.279 L565.113,9.279 Z" id="Shape" fill="#D0021B" fill-rule="nonzero"></path>
            <path d="M145.569,96.524 L140.392,101.701 L138.432,99.741 C138.104495,99.4134951 137.573505,99.4134951 137.246,99.741 C136.918495,100.068505 136.918495,100.599495 137.246,100.927 L139.616,103.296 C139.699179,103.329831 139.765169,103.395821 139.799,103.479 C139.956362,103.636488 140.169867,103.724975 140.3925,103.724975 C140.615133,103.724975 140.828638,103.636488 140.986,103.479 L146.755,97.71 C147.078879,97.3816054 147.076939,96.8533531 146.750657,96.5273459 C146.424375,96.2013387 145.896122,96.1998442 145.568,96.524 L145.569,96.524 Z" id="Shape" fill="#FFFFFF" fill-rule="nonzero"></path>
            <path d="M175.569,96.524 L170.392,101.701 L168.432,99.741 C168.104495,99.4134951 167.573505,99.4134951 167.246,99.741 C166.918495,100.068505 166.918495,100.599495 167.246,100.927 L169.616,103.296 C169.699179,103.329831 169.765169,103.395821 169.799,103.479 C169.956362,103.636488 170.169867,103.724975 170.3925,103.724975 C170.615133,103.724975 170.828638,103.636488 170.986,103.479 L176.755,97.71 C177.078879,97.3816054 177.076939,96.8533531 176.750657,96.5273459 C176.424375,96.2013387 175.896122,96.1998442 175.568,96.524 L175.569,96.524 Z" id="Shape" fill="#666666" fill-rule="nonzero"></path>
            <path d="M157.858,100.859 L161.414,100.859 C161.887308,100.859 162.271,100.475308 162.271,100.002 C162.271,99.528692 161.887308,99.145 161.414,99.145 L157.858,99.145 L157.858,95.589 C157.858,95.115692 157.474308,94.732 157.001,94.732 C156.527692,94.732 156.144,95.115692 156.144,95.589 L156.144,99.145 L152.588,99.145 C152.114692,99.145 151.731,99.528692 151.731,100.002 C151.731,100.475308 152.114692,100.859 152.588,100.859 L156.144,100.859 L156.144,104.415 C156.144,104.888308 156.527692,105.272 157.001,105.272 C157.474308,105.272 157.858,104.888308 157.858,104.415 L157.858,100.859 Z" id="searchbox-cross-4" fill="#666666" fill-rule="nonzero"></path>
            <path d="M237,51 C230.372583,51 225,56.372583 225,63 C225,69.627417 230.372583,75 237,75 C243.627417,75 249,69.627417 249,63 C248.992285,56.3757812 243.624219,51.0077148 237,51 L237,51 Z" id="Shape" fill="#3CB669" fill-rule="nonzero"></path>
            <path d="M234.343,67.2 C234.532991,67.3900972 234.790737,67.4969017 235.0595,67.4969017 C235.328263,67.4969017 235.586009,67.3900972 235.776,67.2 L242.743,60.233 C243.130569,59.8359679 243.126629,59.2010347 242.734163,58.8088428 C242.341697,58.4166508 241.706761,58.4131543 241.31,58.801 L235.059,65.052 L232.692,62.686 C232.436198,62.4301978 232.063358,62.3302957 231.713926,62.4239258 C231.364494,62.5175558 231.091556,62.7904935 230.997926,63.1399258 C230.904296,63.4893581 231.004198,63.8621978 231.26,64.118 L234.121,66.979 L234.343,67.2 Z" id="Shape" fill="#FFFFFF" fill-rule="nonzero"></path>
            <path d="M262,51 C255.372583,51 250,56.372583 250,63 C250,69.627417 255.372583,75 262,75 C268.627417,75 274,69.627417 274,63 C273.992285,56.3757812 268.624219,51.0077148 262,51 Z M267.741,60.232 L260.776,67.2 C260.586009,67.3900972 260.328263,67.4969017 260.0595,67.4969017 C259.790737,67.4969017 259.532991,67.3900972 259.343,67.2 L259.122,66.979 L256.261,64.118 C255.865564,63.7225641 255.865564,63.0814359 256.261,62.686 C256.656436,62.2905641 257.297564,62.2905641 257.693,62.686 L260.06,65.052 L266.311,58.801 C266.707761,58.4131543 267.342697,58.4166508 267.735163,58.8088428 C268.127629,59.2010347 268.131569,59.8359679 267.744,60.233 L267.741,60.232 Z" id="Shape" fill="#FFFFFF" fill-rule="nonzero"></path>
            <path d="M162,51 C155.372583,51 150,56.372583 150,63 C150,69.627417 155.372583,75 162,75 C168.627417,75 174,69.627417 174,63 C173.992285,56.3757812 168.624219,51.0077148 162,51 Z M162,73.55 C156.173526,73.5494477 151.450632,68.8258073 151.451,62.9993334 C151.451368,57.1728595 156.174859,52.449816 162.001333,52.4500001 C167.827807,52.4501841 172.551,57.1735261 172.551,63 C172.545488,68.8250337 167.825033,73.545936 162,73.552 L162,73.55 Z" id="Shape" fill="#FFFFFF" fill-rule="nonzero"></path>
            <path d="M166.309,58.8 L160.058,65.051 L157.691,62.685 C157.435198,62.4291978 157.062358,62.3292956 156.712926,62.4229257 C156.363493,62.5165558 156.090556,62.7894935 155.996926,63.1389258 C155.903296,63.4883581 156.003198,63.8611978 156.259,64.117 L159.12,66.978 L159.341,67.199 C159.530991,67.3890972 159.788737,67.4959017 160.0575,67.4959017 C160.326263,67.4959017 160.584009,67.3890972 160.774,67.199 L167.741,60.232 C168.128569,59.8349679 168.124629,59.2000347 167.732163,58.8078428 C167.339697,58.4156508 166.704761,58.4121543 166.308,58.8 L166.309,58.8 Z" id="Shape" fill="#FFFFFF" fill-rule="nonzero"></path>
            <path d="M37,51 C30.372583,51 25,56.372583 25,63 C25,69.627417 30.372583,75 37,75 C43.627417,75 49,69.627417 49,63 C48.9922852,56.3757812 43.6242188,51.0077148 37,51 Z M37,73.55 C31.1735261,73.5494477 26.4506318,68.8258073 26.451,62.9993334 C26.4513682,57.1728595 31.1748594,52.449816 37.0013333,52.4500001 C42.8278072,52.4501841 47.551,57.1735261 47.551,63 C47.5454881,68.8250337 42.8250331,73.545936 37,73.552 L37,73.55 Z" id="Shape" fill="#3CB669" fill-rule="nonzero"></path>
            <path d="M41.309,58.8 L35.058,65.051 L32.691,62.685 C32.4351978,62.4291978 32.0623581,62.3292957 31.7129258,62.4229258 C31.3634935,62.5165558 31.0905558,62.7894935 30.9969258,63.1389258 C30.9032957,63.4883581 31.0031978,63.8611978 31.259,64.117 L34.12,66.978 L34.341,67.199 C34.5309907,67.3890972 34.7887373,67.4959017 35.0575,67.4959017 C35.3262627,67.4959017 35.5840093,67.3890972 35.774,67.199 L42.741,60.232 C43.0092757,59.9788006 43.1187027,59.5997813 43.0266636,59.2425551 C42.9346245,58.8853289 42.6556711,58.6063755 42.2984449,58.5143364 C41.9412187,58.4222973 41.5621994,58.5317243 41.309,58.8 L41.309,58.8 Z" id="Shape" fill="#3CB669" fill-rule="nonzero"></path>
            <path d="M12,51 C5.372583,51 -2.66453526e-15,56.372583 -3.55271368e-15,63 C-4.4408921e-15,69.627417 5.372583,75 12,75 C18.627417,75 24,69.627417 24,63 C23.9922852,56.3757812 18.6242188,51.0077148 12,51 Z M12,73.55 C6.1735261,73.5494477 1.45063185,68.8258073 1.45100002,62.9993334 C1.45136819,57.1728595 6.17485937,52.449816 12.0013333,52.4500001 C17.8278072,52.4501841 22.551,57.1735261 22.551,63 C22.5454881,68.8250337 17.8250331,73.545936 12,73.552 L12,73.55 Z" id="Shape" fill="#FFFFFF" fill-rule="nonzero"></path>
            <rect id="Rectangle-path" fill="#FFFFFF" fill-rule="nonzero" x="6.783" y="61.956" width="10.435" height="2.087"></rect>
            <g id="header-red-alert-2" transform="translate(611.000000, 2.000000)" fill-rule="nonzero">
                <path d="M50.7,42.456 L27.964,1.245 C27.5693789,0.529625624 26.8169983,0.0853988185 26,0.0853988185 C25.1830017,0.0853988185 24.4306211,0.529625624 24.036,1.245 L1.3,42.456 C0.89262976,43.1649812 0.89023636,44.0364531 1.29370621,44.7476612 C1.69717606,45.4588692 2.44643855,45.9039252 3.264,45.918 L48.727,45.918 C49.5461735,45.907061 50.2983308,45.4632443 50.7039714,44.7514714 C51.109612,44.0396986 51.1081011,43.166365 50.7,42.456 L50.7,42.456 Z" id="Shape" fill="#EE3E3D"></path>
                <rect id="Rectangle-path" fill="#FFFFFF" x="23.844" y="16.187" width="4.313" height="14.055"></rect>
                <rect id="Rectangle-path" fill="#FFFFFF" x="23.844" y="34.696" width="4.313" height="3.991"></rect>
            </g>
            <g id="overview-tile-ontime-2" transform="translate(442.000000, 76.000000)" fill-rule="nonzero" fill="#EC1C24">
                <path d="M8,0 C3.581722,0 0,3.581722 0,8 C0,12.418278 3.581722,16 8,16 C12.418278,16 16,12.418278 16,8 C15.9950401,3.58377808 12.4162219,0.00495988455 8,0 Z M8,14.5 C4.41014913,14.5 1.5,11.5898509 1.5,8 C1.5,4.41014913 4.41014913,1.5 8,1.5 C11.5898509,1.5 14.5,4.41014913 14.5,8 C14.496142,11.5882516 11.5882516,14.496142 8,14.5 Z" id="Shape"></path>
                <path d="M8.894,3.436 C8.7494246,3.28952182 8.551806,3.20766156 8.346,3.209 C8.14085512,3.21191909 7.94467267,3.29354244 7.798,3.437 C7.65248583,3.5824711 7.57142959,3.78024834 7.573,3.986 L7.601,8.307 L4.917,8.289 C4.71158786,8.27937343 4.51068455,8.35125297 4.358,8.489 C4.12772933,8.70102494 4.04738989,9.03063769 4.15427325,9.32484018 C4.26115662,9.61904266 4.53433274,9.82022369 4.847,9.835 L8.347,9.889 C8.55729669,9.89558585 8.76172226,9.81906099 8.916,9.676 L8.916,9.676 C9.06958148,9.52910385 9.15600519,9.32551997 9.155,9.113 L9.124,3.978 C9.12249136,3.77392963 9.03971876,3.5788742 8.894,3.436 L8.894,3.436 Z" id="Shape"></path>
            </g>
            <g id="dropdown-arrow-3" transform="translate(36.000000, 109.000000)" fill-rule="nonzero" fill="#FFFFFF">
                <polygon id="Shape" points="8 0 4 6 0 0"></polygon>
            </g>
            <path d="M476.854,77.707 L488.467,77.707 C488.936442,77.707 489.317,77.326442 489.317,76.857 C489.317,76.387558 488.936442,76.007 488.467,76.007 L476.854,76.007 C476.384558,76.007 476.004,76.387558 476.004,76.857 C476.004,77.326442 476.384558,77.707 476.854,77.707 L476.854,77.707 Z" id="Shape" fill="#4D5055"></path>
            <path d="M476.845,81.37 L484.481,81.37 C484.950442,81.37 485.331,80.989442 485.331,80.52 C485.331,80.050558 484.950442,79.67 484.481,79.67 L476.845,79.67 C476.375558,79.67 475.995,80.050558 475.995,80.52 C475.995,80.989442 476.375558,81.37 476.845,81.37 L476.845,81.37 Z" id="Shape" fill="#4D5055"></path>
            <path d="M481.136,83.335 L476.86,83.335 C476.390558,83.335 476.01,83.715558 476.01,84.185 C476.01,84.654442 476.390558,85.035 476.86,85.035 L481.136,85.035 C481.605442,85.035 481.986,84.654442 481.986,84.185 C481.986,83.715558 481.605442,83.335 481.136,83.335 L481.136,83.335 Z" id="Shape" fill="#4D5055"></path>
            <path d="M478.745,87 L476.853,87 C476.383558,87 476.003,87.380558 476.003,87.85 C476.003,88.319442 476.383558,88.7 476.853,88.7 L478.745,88.7 C479.214442,88.7 479.595,88.319442 479.595,87.85 C479.595,87.380558 479.214442,87 478.745,87 L478.745,87 Z" id="Shape" fill="#4D5055"></path>
            <path d="M491.96,82.927 C491.89904,82.7660551 491.741966,82.6621447 491.57,82.669 L483.091,82.669 C482.918673,82.661705 482.761077,82.7656944 482.7,82.927 C482.619931,83.0845577 482.658396,83.2764696 482.793,83.391 L486.059,86.657 L486.059,89.876 C486.057561,89.9889497 486.102786,90.097489 486.184,90.176 L487.884,91.876 C487.961804,91.9582447 488.070816,92.0036666 488.184,92.001 C488.240581,92.0004247 488.29655,91.9892308 488.349,91.968 C488.5107,91.9072598 488.615145,91.7495842 488.608,91.577 L488.608,86.656 L491.873,83.39 C492.005374,83.274238 492.041325,83.0829171 491.96,82.927 L491.96,82.927 Z" id="Shape" fill="#4D5055"></path>
            <g id="header-event-2" transform="translate(459.000000, 76.000000)" fill-rule="nonzero">
                <path d="M8,0 C3.581722,0 0,3.581722 0,8 C0,12.418278 3.581722,16 8,16 C12.418278,16 16,12.418278 16,8 C16,3.581722 12.418278,0 8,0 Z" id="Shape" fill="#666666"></path>
                <rect id="Rectangle-path" fill="#FFFFFF" x="7.304" y="7.095" width="1.394" height="4.543"></rect>
                <rect id="Rectangle-path" fill="#FFFFFF" x="7.304" y="4.365" width="1.394" height="1.29"></rect>
            </g>
            <g id="ic-search" transform="translate(304.000000, 55.000000)" fill="#000000">
                <path d="M5.94,9.68 C6.6200034,9.68 7.2466638,9.5100017 7.82,9.17 C8.3933362,8.8299983 8.846665,8.3733362 9.18,7.8 C9.513335,7.2266638 9.68,6.6000034 9.68,5.92 C9.68,5.2399966 9.513335,4.6133362 9.18,4.04 C8.846665,3.4666638 8.3933362,3.013335 7.82,2.68 C7.2466638,2.346665 6.6200034,2.18 5.94,2.18 C5.2599966,2.18 4.6333362,2.346665 4.06,2.68 C3.4866638,3.013335 3.0300017,3.4666638 2.69,4.04 C2.3499983,4.6133362 2.18,5.2399966 2.18,5.92 C2.18,6.6000034 2.3499983,7.2266638 2.69,7.8 C3.0300017,8.3733362 3.4866638,8.8299983 4.06,9.17 C4.6333362,9.5100017 5.2599966,9.68 5.94,9.68 Z M10.94,9.68 L15.08,13.82 L13.82,15.08 L9.68,10.92 L9.68,10.26 L9.44,10.04 C8.973331,10.4533354 8.4366697,10.7699989 7.83,10.99 C7.2233303,11.2100011 6.5933366,11.32 5.94,11.32 C4.9533284,11.32 4.0433375,11.0800024 3.21,10.6 C2.3766625,10.1199976 1.7200024,9.4733374 1.24,8.66 C0.7466642,7.8199958 0.5,6.9066716 0.5,5.92 C0.5,4.9333284 0.7433309,4.0233375 1.23,3.19 C1.7166691,2.3566625 2.3766625,1.7000024 3.21,1.22 C4.0433375,0.7399976 4.9533284,0.5 5.94,0.5 C6.9266716,0.5 7.8399958,0.7466642 8.68,1.24 C9.4933374,1.7200024 10.1366643,2.3733292 10.61,3.2 C11.0833357,4.0266708 11.32,4.9333284 11.32,5.92 C11.32,6.58667 11.2100011,7.2233303 10.99,7.83 C10.7699989,8.4366697 10.4533354,8.973331 10.04,9.44 L10.26,9.68 L10.94,9.68 Z" id=""></path>
            </g>
            <g id="ic-critical" transform="translate(278.000000, 55.000000)" fill-rule="nonzero">
                <path d="M9.692,0.551 C9.32,-0.129 8.714,-0.124 8.343,0.551 L0.194,15.402 C-0.179,16.082 0.149,16.633 0.913,16.633 L17.086,16.633 C17.856,16.633 18.176,16.077 17.807,15.403 L9.692,0.55 L9.692,0.551 Z" id="Shape" fill="#F62732"></path>
                <path d="M9.554,11.446 L8.294,11.446 L8.294,5 L9.554,5 L9.554,11.446 Z M9.848,13.758 C9.85036081,13.998062 9.75121332,14.2279534 9.575,14.391 C9.40275871,14.5637246 9.16790526,14.6593254 8.924,14.656 C8.68009474,14.6593254 8.44524129,14.5637246 8.273,14.391 C8.09678668,14.2279534 7.99763919,13.998062 8,13.758 C8,13.514 8.091,13.303 8.273,13.126 C8.44524129,12.9532754 8.68009474,12.8576746 8.924,12.861 C9.176,12.861 9.393,12.949 9.575,13.126 C9.75095429,13.2888117 9.85007806,13.5182851 9.848,13.758 L9.848,13.758 Z" id="Shape" fill="#FFFFFF"></path>
            </g>
            <g id="ic-bell" transform="translate(253.000000, 53.000000)" fill="#000000">
                <path d="M15,13.584 L17.016,15.6 L17.016,16.584 L0.984,16.584 L0.984,15.6 L3,13.584 L3,8.616 C3,7.048 3.392,5.696 4.176,4.56 C4.976,3.392 6.088,2.632 7.512,2.28 L7.512,1.584 C7.512,1.168 7.656,0.812 7.944,0.516 C8.232,0.22 8.584,0.072 9,0.072 C9.416,0.072 9.772,0.22 10.068,0.516 C10.364,0.812 10.512,1.168 10.512,1.584 L10.512,2.28 C11.92,2.632 13.024,3.4 13.824,4.584 C14.608,5.72 15,7.064 15,8.616 L15,13.584 Z M9,19.584 C8.44,19.584 7.964,19.392 7.572,19.008 C7.18963389,18.6468724 6.97632142,18.1418878 6.984,17.616 L11.016,17.616 C11.016,18.16 10.816,18.624 10.416,19.008 C10.016,19.392 9.544,19.584 9,19.584 L9,19.584 Z" id="Shape"></path>
            </g>
            <polygon id="ix-close" fill="#FFFFFF" points="508 78 502 84 508 90 507 91 501 85 495 91 494 90 500 84 494 78 495 77 501 83 507 77"></polygon>
            <g id="ic-sort" transform="translate(183.000000, 96.000000)" fill="#333333">
                <path d="M0.3,5.941 C1.206,6.866 2.125,7.777 3.045,8.689 C3.262,8.903 3.477,9.002 3.691,9 C3.905,9.002 4.121,8.903 4.338,8.689 C5.258,7.777 6.176,6.866 7.082,5.941 C7.438,5.578 7.51,5.16 7.124,4.767 C6.738,4.375 6.319,4.435 5.95,4.787 C5.517,5.201 5.113,5.647 4.512,6.269 C4.512,3.021 4.508,4.19 4.515,1.26 C4.517,0.763 4.506,0.283 3.965,0.057 C3.87801013,0.0211127657 3.78508484,0.00178159071 3.691,8.39328607e-17 C3.59691516,0.00178159071 3.50398987,0.0211127657 3.417,0.057 C2.877,0.283 2.867,0.763 2.867,1.26 C2.875,4.19 2.871,3.021 2.871,6.269 C2.271,5.647 1.866,5.201 1.432,4.787 C1.063,4.435 0.644,4.375 0.259,4.767 C-0.127,5.16 -0.056,5.578 0.3,5.941" id="Shape"></path>
            </g>
        </g>
    </g>
</svg>